<?xml version="1.0" encoding="UTF-8" standalone="no"?>
<!-- Generator: Adobe Illustrator 16.0.0, SVG Export Plug-In . SVG Version: 6.00 Build 0)  -->

<svg
   version="1.1"
   id="Layer_1"
   x="0px"
   y="0px"
   width="280"
   height="280"
   viewBox="0 0 280 280"
   enable-background="new 0 0 243.039 238.522"
   xml:space="preserve"
   sodipodi:docname="gorenjska.svg"
   inkscape:version="1.1.2 (0a00cf5339, 2022-02-04, custom)"
   inkscape:export-filename="/home/franga2000/DEV/oJPP/zemljevid/assets/marker/gorenjska.png"
   inkscape:export-xdpi="175.53999"
   inkscape:export-ydpi="175.53999"
   xmlns:inkscape="http://www.inkscape.org/namespaces/inkscape"
   xmlns:sodipodi="http://sodipodi.sourceforge.net/DTD/sodipodi-0.dtd"
   xmlns:xlink="http://www.w3.org/1999/xlink"
   xmlns="http://www.w3.org/2000/svg"
   xmlns:svg="http://www.w3.org/2000/svg"><defs
   id="defs109" /><sodipodi:namedview
   id="namedview107"
   pagecolor="#505050"
   bordercolor="#ffffff"
   borderopacity="1"
   inkscape:pageshadow="0"
   inkscape:pageopacity="0"
   inkscape:pagecheckerboard="1"
   showgrid="false"
   inkscape:snap-page="true"
   inkscape:zoom="1.8132499"
   inkscape:cx="144.49194"
   inkscape:cy="166.55178"
   inkscape:window-width="1920"
   inkscape:window-height="1051"
   inkscape:window-x="0"
   inkscape:window-y="0"
   inkscape:window-maximized="1"
   inkscape:current-layer="g104" />
<g
   id="g104">
	
		<rect
   style="fill:#e1dfda;stroke-width:0.933333;fill-opacity:1"
   id="rect1151"
   width="280"
   height="280"
   x="0"
   y="0" /><line
   fill="none"
   stroke="#000000"
   stroke-width="8"
   stroke-linecap="round"
   stroke-miterlimit="10"
   x1="168.38387"
   y1="98.960716"
   x2="125.99887"
   y2="127.96272"
   id="line2" />
	<g
   id="g102"
   transform="translate(17.647871,38.604717)">
		<g
   opacity="0.84"
   id="g14">
			<g
   id="g12">
				<defs
   id="defs5">
					<rect
   id="SVGID_1_"
   x="130.57201"
   y="41.919998"
   width="112.467"
   height="112.466" />
				</defs>
				<clipPath
   id="SVGID_2_">
					<use
   xlink:href="#SVGID_1_"
   overflow="visible"
   id="use7"
   x="0"
   y="0"
   width="100%"
   height="100%" />
				</clipPath>
				<path
   clip-path="url(#SVGID_2_)"
   fill="none"
   stroke="#76b743"
   stroke-width="8"
   stroke-miterlimit="10"
   d="m 190.359,46.037 c 23.593,1.589 43.885,19.161 47.955,43.499 4.76,28.448 -14.444,55.367 -42.893,60.125 -28.447,4.76 -55.367,-14.444 -60.125,-42.893 -4.759,-28.447 14.444,-55.367 42.892,-60.125 4.111,-0.687 8.188,-0.874 12.171,-0.606"
   id="path10" />
			</g>
		</g>
		<path
   fill="none"
   stroke="#000000"
   stroke-width="8"
   stroke-linecap="round"
   stroke-miterlimit="10"
   d="m 190.359,46.037 c 23.593,1.589 43.885,19.161 47.955,43.499 4.76,28.448 -14.444,55.367 -42.893,60.125 -23.412,3.917 -45.789,-8.396 -55.63,-28.736"
   id="path16" />
		<g
   opacity="0.84"
   id="g28">
			<g
   id="g26">
				<defs
   id="defs19">
					<rect
   id="SVGID_3_"
   x="189.63499"
   y="91.526001"
   width="40.965"
   height="50.035" />
				</defs>
				<clipPath
   id="SVGID_4_">
					<use
   xlink:href="#SVGID_3_"
   overflow="visible"
   id="use21"
   x="0"
   y="0"
   width="100%"
   height="100%" />
				</clipPath>
				
					<path
   clip-path="url(#SVGID_4_)"
   fill="none"
   stroke="#a8ce44"
   stroke-width="6.302"
   stroke-linecap="round"
   stroke-miterlimit="10"
   d="m 227.314,94.677 c 1.718,20.969 -13.124,40.152 -34.529,43.733"
   id="path24" />
			</g>
		</g>
		<g
   opacity="0.44"
   id="g40">
			<g
   id="g38">
				<defs
   id="defs31">
					<rect
   id="SVGID_5_"
   x="193.37601"
   y="46.076"
   width="3.539"
   height="0.117" />
				</defs>
				<clipPath
   id="SVGID_6_">
					<use
   xlink:href="#SVGID_5_"
   overflow="visible"
   id="use33"
   x="0"
   y="0"
   width="100%"
   height="100%" />
				</clipPath>
				<path
   clip-path="url(#SVGID_6_)"
   fill="#408e96"
   d="m 193.376,46.077 c 1.188,-10e-4 2.367,0.038 3.539,0.117"
   id="path36" />
			</g>
		</g>
		<g
   opacity="0.84"
   id="g52">
			<g
   id="g50">
				<defs
   id="defs43">
					<rect
   id="SVGID_7_"
   x="0.292"
   y="42.048"
   width="111.992"
   height="111.992" />
				</defs>
				<clipPath
   id="SVGID_8_">
					<use
   xlink:href="#SVGID_7_"
   overflow="visible"
   id="use45"
   x="0"
   y="0"
   width="100%"
   height="100%" />
				</clipPath>
				<path
   clip-path="url(#SVGID_8_)"
   fill="none"
   stroke="#76b743"
   stroke-width="8"
   stroke-miterlimit="10"
   d="m 59.826,46.165 c 23.485,1.582 43.684,19.074 47.737,43.301 4.737,28.319 -14.379,55.116 -42.698,59.853 C 36.547,154.056 9.75,134.94 5.013,106.621 0.276,78.303 19.392,51.506 47.711,46.769 c 4.09,-0.685 8.15,-0.871 12.115,-0.604"
   id="path48" />
			</g>
		</g>
		<path
   fill="none"
   stroke="#000000"
   stroke-width="8"
   stroke-linecap="round"
   stroke-miterlimit="10"
   d="m 75.639,146.308 c -3.406,1.361 -7.008,2.382 -10.774,3.011 C 36.547,154.057 9.75,134.94 5.013,106.622 0.276,78.303 19.392,51.506 47.711,46.769 c 4.091,-0.684 8.15,-0.871 12.115,-0.603"
   id="path54" />
		<path
   fill="none"
   stroke="#000000"
   stroke-width="8"
   stroke-linecap="round"
   stroke-miterlimit="10"
   d="m 59.826,46.165 c 18.049,1.216 34.158,11.829 42.488,27.676"
   id="path56" />
		<g
   opacity="0.84"
   id="g68">
			<g
   id="g66">
				<defs
   id="defs59">
					<rect
   id="SVGID_9_"
   x="14.666"
   y="59.752998"
   width="27.611"
   height="59.104" />
				</defs>
				<clipPath
   id="SVGID_10_">
					<use
   xlink:href="#SVGID_9_"
   overflow="visible"
   id="use61"
   x="0"
   y="0"
   width="100%"
   height="100%" />
				</clipPath>
				
					<path
   clip-path="url(#SVGID_10_)"
   fill="none"
   stroke="#a8ce44"
   stroke-width="6.302"
   stroke-linecap="round"
   stroke-miterlimit="10"
   d="M 39.126,62.904 C 20.618,72.909 12.645,95.816 21.328,115.706"
   id="path64" />
			</g>
		</g>
		<path
   fill="none"
   stroke="#000000"
   stroke-width="9.422"
   stroke-linecap="round"
   stroke-miterlimit="10"
   d="M 95.441,191.174 V 98.21 c 0,-0.473 -0.384,-0.857 -0.857,-0.857 H 92.691 57.212 c -0.8,0 -1.164,0.999 -0.551,1.513 l 17.278,14.498"
   id="path70" />
		<path
   fill="none"
   stroke="#000000"
   stroke-width="9.422"
   stroke-linecap="round"
   stroke-miterlimit="10"
   d="M 186.742,98.533 V 5.568 c 0,-0.473 0.385,-0.857 0.857,-0.857 h 1.893 35.479 c 0.8,0 1.164,0.999 0.551,1.513 l -17.278,14.498"
   id="path72" />
		
		
		
		
		
		
		
		
		
		
		
		
		
		
	</g>
</g>
</svg>
