<?xml version="1.0" encoding="UTF-8" standalone="no"?>
<!-- Generator: Adobe Illustrator 16.0.0, SVG Export Plug-In . SVG Version: 6.00 Build 0)  -->

<svg
   version="1.1"
   id="Layer_1"
   x="0px"
   y="0px"
   width="200"
   height="200"
   viewBox="0 0 200 200"
   enable-background="new 0 0 464.625 92.375"
   xml:space="preserve"
   sodipodi:docname="krskolesom.svg"
   inkscape:version="1.1.2 (0a00cf5339, 2022-02-04, custom)"
   inkscape:export-filename="/home/franga2000/DEV/oJPP/zemljevid/assets/marker/krskolesom.png"
   inkscape:export-xdpi="245.75999"
   inkscape:export-ydpi="245.75999"
   xmlns:inkscape="http://www.inkscape.org/namespaces/inkscape"
   xmlns:sodipodi="http://sodipodi.sourceforge.net/DTD/sodipodi-0.dtd"
   xmlns:xlink="http://www.w3.org/1999/xlink"
   xmlns="http://www.w3.org/2000/svg"
   xmlns:svg="http://www.w3.org/2000/svg"><defs
   id="defs71" /><sodipodi:namedview
   id="namedview69"
   pagecolor="#505050"
   bordercolor="#ffffff"
   borderopacity="1"
   inkscape:pageshadow="0"
   inkscape:pageopacity="0"
   inkscape:pagecheckerboard="1"
   showgrid="false"
   fit-margin-top="0"
   fit-margin-left="0"
   fit-margin-right="0"
   fit-margin-bottom="0"
   inkscape:snap-page="true"
   inkscape:zoom="1.4269572"
   inkscape:cx="199.72568"
   inkscape:cy="91.803733"
   inkscape:window-width="1920"
   inkscape:window-height="1051"
   inkscape:window-x="0"
   inkscape:window-y="0"
   inkscape:window-maximized="1"
   inkscape:current-layer="g66" />
<g
   id="g66"
   transform="translate(0.07306676,-0.13695802)">
	<defs
   id="defs3">
		<rect
   id="SVGID_1_"
   x="-167.75"
   y="-251.53"
   width="841.89001"
   height="595.28003" />
	</defs>
	<clipPath
   id="SVGID_2_">
		<use
   xlink:href="#SVGID_1_"
   overflow="visible"
   id="use5"
   x="0"
   y="0"
   width="100%"
   height="100%" />
	</clipPath>
	<rect
   style="fill:#a6d8db;stroke-width:0.933333;fill-opacity:1"
   id="rect1014"
   width="200"
   height="200"
   x="-0.073066764"
   y="0.13695802" /><path
   clip-path="url(#SVGID_2_)"
   fill="#a6d8db"
   d="m 133.685,92.283 c -16.602,0.001 -30.214,-13.396 -30.426,-30.046 -0.087,-6.828 2.04,-13.308 6.15,-18.739 1.101,-1.455 3.172,-1.741 4.626,-0.641 1.455,1.1 1.741,3.171 0.642,4.625 -3.218,4.252 -4.882,9.324 -4.813,14.67 0.166,13.036 10.824,23.527 23.823,23.527 0.103,0 0.206,-0.001 0.309,-0.002 13.139,-0.169 23.691,-10.995 23.523,-24.133 -0.166,-13.035 -10.824,-23.526 -23.824,-23.526 -0.103,0 -0.204,0 -0.308,0.002 -1.789,0.023 -3.567,0.244 -5.29,0.658 -1.772,0.427 -3.556,-0.666 -3.982,-2.438 -0.427,-1.773 0.665,-3.557 2.438,-3.984 2.199,-0.528 4.47,-0.81 6.75,-0.84 0.13,-0.002 0.263,-0.002 0.393,-0.002 16.604,0 30.215,13.396 30.428,30.045 0.214,16.779 -13.264,30.606 -30.043,30.82 -0.132,0.002 -0.264,0.004 -0.396,0.004"
   id="path8"
   transform="translate(18.220588,44.850678)"
   style="fill:#6d989b;fill-opacity:1" />
	<path
   clip-path="url(#SVGID_2_)"
   fill="#a6d8db"
   d="M 30.386,92.271 C 21.171,92.271 12.062,88.116 6.085,80.218 -4.045,66.838 -1.4,47.711 11.98,37.583 c 5.445,-4.122 11.929,-6.251 18.732,-6.168 1.825,0.022 3.284,1.519 3.261,3.342 -0.023,1.811 -1.497,3.261 -3.301,3.261 H 30.63 C 25.31,37.962 20.23,39.621 15.966,42.848 5.489,50.781 3.418,65.756 11.35,76.231 19.282,86.71 34.258,88.779 44.733,80.847 55.209,72.916 57.28,57.941 49.349,47.463 c -1.08,-1.425 -2.314,-2.726 -3.668,-3.867 -1.397,-1.174 -1.575,-3.258 -0.4,-4.652 1.174,-1.394 3.256,-1.575 4.652,-0.4 1.73,1.456 3.306,3.115 4.682,4.933 10.129,13.379 7.484,32.506 -5.895,42.636 -5.484,4.152 -11.936,6.158 -18.334,6.158"
   id="path10"
   transform="translate(18.220588,44.850678)"
   style="fill:#6d989b;fill-opacity:1" />
	<path
   clip-path="url(#SVGID_2_)"
   fill="#5e5647"
   d="m 53.05,20.826 h 38.057 c 1.825,0 3.303,-1.478 3.303,-3.303 0,-1.822 -1.478,-3.302 -3.303,-3.302 H 51.146 l 3.498,-9.64 C 55.012,3.569 54.863,2.441 54.244,1.559 53.626,0.678 52.616,0.152 51.54,0.152 h -11.9 c -1.823,0 -3.302,1.479 -3.302,3.303 0,1.824 1.479,3.302 3.302,3.302 h 7.189 L 27.245,60.722 c -0.622,1.715 0.263,3.608 1.977,4.23 0.372,0.137 0.752,0.199 1.126,0.199 1.35,-10e-4 2.618,-0.834 3.104,-2.176 L 47.467,24.356 73.635,63.678 c 0.637,0.956 1.685,1.472 2.752,1.472 0.628,0 1.264,-0.179 1.827,-0.553 1.519,-1.01 1.929,-3.061 0.919,-4.579 z"
   id="path12"
   transform="translate(18.220588,44.850678)" />
	<path
   clip-path="url(#SVGID_2_)"
   fill="#5e5647"
   d="m 107.88,17.365 c 1.716,-4.701 3.067,-8.408 3.744,-10.272 0.042,-0.113 0.079,-0.226 0.111,-0.336 h 11.187 c 0.401,0 0.819,-0.004 1.249,-0.008 4.88,-0.043 8.697,0.141 9.817,2.918 1.185,2.942 -1.677,7.743 -4.853,9.61 -2.615,1.538 -4.402,1.698 -7.858,1.698 -1.824,0 -3.302,1.478 -3.302,3.303 0,1.823 1.478,3.302 3.302,3.302 3.963,0 7.086,-0.188 11.206,-2.609 5.013,-2.948 10.455,-10.765 7.63,-17.774 -2.892,-7.173 -11.097,-7.095 -16.004,-7.053 -0.408,0.005 -0.805,0.008 -1.187,0.008 h -12.885 c -2.264,0 -3.779,1.433 -4.503,4.257 -0.039,0.15 -0.071,0.299 -0.119,0.43 -1.111,3.063 -4.036,11.078 -7.42,20.349 -4.607,12.625 -10.064,27.577 -12.953,35.534 -0.622,1.716 0.264,3.608 1.979,4.23 0.372,0.136 0.753,0.2 1.127,0.2 1.349,0 2.616,-0.834 3.103,-2.177 2.887,-7.954 8.342,-22.902 12.948,-35.523 0.297,-0.812 0.588,-1.612 0.877,-2.403 l 25.871,38.639 c 0.637,0.949 1.682,1.464 2.747,1.464 0.632,0 1.27,-0.181 1.834,-0.56 1.516,-1.015 1.923,-3.064 0.908,-4.581 z"
   id="path14"
   transform="translate(18.220588,44.850678)" />
	
	
	
	
	
	
	
	
	
	
	
	
	
	
	
	
	
	
	
	
	
	
	
	
	
</g>
</svg>
