<?xml version="1.0" encoding="UTF-8" standalone="no"?>
<svg
   viewBox="0 0 512 533.33398"
   version="1.1"
   id="svg5735"
   sodipodi:docname="lpp_postaja.svg"
   width="512"
   height="533.33398"
   inkscape:version="1.2.1 (9c6d41e410, 2022-07-14, custom)"
   xmlns:inkscape="http://www.inkscape.org/namespaces/inkscape"
   xmlns:sodipodi="http://sodipodi.sourceforge.net/DTD/sodipodi-0.dtd"
   xmlns="http://www.w3.org/2000/svg"
   xmlns:svg="http://www.w3.org/2000/svg">
  <defs
     id="defs5739" />
  <sodipodi:namedview
     id="namedview5737"
     pagecolor="#505050"
     bordercolor="#ffffff"
     borderopacity="1"
     inkscape:showpageshadow="0"
     inkscape:pageopacity="0"
     inkscape:pagecheckerboard="1"
     inkscape:deskcolor="#505050"
     showgrid="false"
     inkscape:zoom="1.0764455"
     inkscape:cx="284.73342"
     inkscape:cy="276.83706"
     inkscape:window-width="1920"
     inkscape:window-height="1051"
     inkscape:window-x="0"
     inkscape:window-y="0"
     inkscape:window-maximized="1"
     inkscape:current-layer="svg5735" />
  <ellipse
     style="fill:#1e7b4b;fill-opacity:1;stroke-width:1.333;stop-color:#000000"
     id="path5910"
     cx="256"
     cy="266.66699"
     rx="256"
     ry="266.66699" />
  <path
     d="m 80,362.66649 c 0,19.198 13.864,24.531 26.667,36.271 v 38.396 c 0,11.729 9.599,21.334 21.333,21.334 h 21.333 c 11.734,0 21.334,-9.604 21.334,-21.334 v -21.333 h 170.666 v 21.333 c 0,11.729 9.604,21.334 21.334,21.334 H 384 c 11.729,0 21.333,-9.604 21.333,-21.334 v -38.396 c 12.803,-11.74 26.667,-18.135 26.667,-36.271 v -203.666 c 0,-74.666997 -82.136,-84.333997 -176,-84.333997 -93.864,0 -176,9.667 -176,84.333997 z m 80,15.989 c -18.136,0 -32,-13.864 -32,-32 0,-18.135 13.864,-32 32,-32 18.136,0 32,13.865 32,32 0,18.136 -13.864,32 -32,32 z m 192,0 c -18.136,0 -32,-13.864 -32,-32 0,-18.135 13.864,-32 32,-32 18.136,0 32,13.865 32,32 0,18.136 -13.864,32 -32,32 z m 32,-122.656 H 128 v -106.666 h 256 z"
     id="path5733"
     style="fill:#ffffff" />
</svg>
