<?xml version="1.0" encoding="UTF-8" standalone="no"?>
<!-- Generator: Adobe Illustrator 18.0.0, SVG Export Plug-In . SVG Version: 6.00 Build 0)  -->

<svg
   version="1.1"
   id="Capa_1"
   x="0px"
   y="0px"
   viewBox="0 0 347.45867 461.1473"
   xml:space="preserve"
   sodipodi:docname="lpp_lokacije.svg"
   width="347.45868"
   height="461.14731"
   inkscape:version="1.2.1 (9c6d41e410, 2022-07-14, custom)"
   xmlns:inkscape="http://www.inkscape.org/namespaces/inkscape"
   xmlns:sodipodi="http://sodipodi.sourceforge.net/DTD/sodipodi-0.dtd"
   xmlns="http://www.w3.org/2000/svg"
   xmlns:svg="http://www.w3.org/2000/svg"><defs
   id="defs37" /><sodipodi:namedview
   id="namedview35"
   pagecolor="#505050"
   bordercolor="#ffffff"
   borderopacity="1"
   inkscape:showpageshadow="0"
   inkscape:pageopacity="0"
   inkscape:pagecheckerboard="1"
   inkscape:deskcolor="#505050"
   showgrid="false"
   inkscape:zoom="1.4750372"
   inkscape:cx="110.16671"
   inkscape:cy="239.316"
   inkscape:window-width="1920"
   inkscape:window-height="1051"
   inkscape:window-x="0"
   inkscape:window-y="0"
   inkscape:window-maximized="1"
   inkscape:current-layer="Capa_1" />
<path
   d="M 173.73112,1.1052305e-7 C 168.30054,1.1052305e-7 163.42221,3.3891631 161.54201,8.4937661 L 0.80814928,443.65152 c -1.84696198,4.97944 -0.462447,10.57831 3.48179402,14.13789 3.930807,3.57159 9.6414007,4.37063 14.4193217,2.02798 l 122.870415,-60.2363 c 20.2678,-9.92425 43.99194,-9.92496 64.25904,0 l 122.91637,60.23701 c 4.76448,2.33204 10.47649,1.53159 14.41932,-2.02798 3.94354,-3.56029 5.31674,-9.17047 3.48109,-14.13719 L 185.91952,8.4930591 C 184.03862,3.3905771 179.16099,-7.0688948e-4 173.73112,1.1052305e-7 Z"
   id="path2"
   style="fill:#1e7b4b;fill-opacity:1" />
<g
   id="g4"
   transform="translate(-49.941662,1.8446637)">
</g>
<g
   id="g6"
   transform="translate(-49.941662,1.8446637)">
</g>
<g
   id="g8"
   transform="translate(-49.941662,1.8446637)">
</g>
<g
   id="g10"
   transform="translate(-49.941662,1.8446637)">
</g>
<g
   id="g12"
   transform="translate(-49.941662,1.8446637)">
</g>
<g
   id="g14"
   transform="translate(-49.941662,1.8446637)">
</g>
<g
   id="g16"
   transform="translate(-49.941662,1.8446637)">
</g>
<g
   id="g18"
   transform="translate(-49.941662,1.8446637)">
</g>
<g
   id="g20"
   transform="translate(-49.941662,1.8446637)">
</g>
<g
   id="g22"
   transform="translate(-49.941662,1.8446637)">
</g>
<g
   id="g24"
   transform="translate(-49.941662,1.8446637)">
</g>
<g
   id="g26"
   transform="translate(-49.941662,1.8446637)">
</g>
<g
   id="g28"
   transform="translate(-49.941662,1.8446637)">
</g>
<g
   id="g30"
   transform="translate(-49.941662,1.8446637)">
</g>
<g
   id="g32"
   transform="translate(-49.941662,1.8446637)">
</g>
</svg>
