<?xml version="1.0" encoding="UTF-8" standalone="no"?>
<!-- Generator: Adobe Illustrator 21.1.0, SVG Export Plug-In . SVG Version: 6.00 Build 0)  -->

<svg
   version="1.1"
   id="Layer_1"
   x="0px"
   y="0px"
   viewBox="0 0 127.3831 127.3831"
   xml:space="preserve"
   sodipodi:docname="soboskibiciklin.svg"
   width="127.3831"
   height="127.3831"
   inkscape:version="1.1.2 (0a00cf5339, 2022-02-04, custom)"
   inkscape:export-filename="/home/franga2000/DEV/oJPP/zemljevid/assets/marker/soboskibiciklin.png"
   inkscape:export-xdpi="245.75999"
   inkscape:export-ydpi="245.75999"
   xmlns:inkscape="http://www.inkscape.org/namespaces/inkscape"
   xmlns:sodipodi="http://sodipodi.sourceforge.net/DTD/sodipodi-0.dtd"
   xmlns="http://www.w3.org/2000/svg"
   xmlns:svg="http://www.w3.org/2000/svg"><defs
   id="defs43" /><sodipodi:namedview
   id="namedview41"
   pagecolor="#505050"
   bordercolor="#ffffff"
   borderopacity="1"
   inkscape:pageshadow="0"
   inkscape:pageopacity="0"
   inkscape:pagecheckerboard="1"
   showgrid="false"
   fit-margin-top="0"
   fit-margin-left="0"
   fit-margin-right="0"
   fit-margin-bottom="0"
   inkscape:zoom="1.993985"
   inkscape:cx="-7.5226243"
   inkscape:cy="75.226243"
   inkscape:window-width="1920"
   inkscape:window-height="1051"
   inkscape:window-x="0"
   inkscape:window-y="0"
   inkscape:window-maximized="1"
   inkscape:current-layer="Layer_1" />
<style
   type="text/css"
   id="style2">
	.st0{fill:#3D8836;}
	.st1{fill:#8DC63F;}
</style>
<rect
   style="fill:#ffffff;stroke-width:0.891228"
   id="rect1042"
   width="127.3831"
   height="127.3831"
   x="0"
   y="0" /><g
   id="g38"
   transform="translate(13.039215,-72.467947)">
	
	
	
	
	
	
	
	
	
	
	
	
	<path
   class="st0"
   d="m 30.6,115.4 c -1.1,5.3 0,10.9 4.2,16 1.7,2.1 3.8,3.6 6.1,4.7 v 0 c 0,0 0.1,0 0.1,0 0.8,0.4 0.1,0 -0.1,0 0,0 0,0 -0.1,0 0.6,0.1 1.1,0.1 1.7,0.1 3,-0.1 5.5,-2 6.6,-4.6 0,-0.1 0,-0.1 0.1,-0.2 0.2,-0.4 0.3,-0.9 0.4,-1.3 0.1,-0.6 0.2,-1.1 0.2,-1.7 0,-0.6 -0.1,-1.2 -0.2,-1.8 0,0 0,0 0,0 0,0 0,0 0,0 -0.1,0.8 -0.8,1.4 -2,1.5 -3.8,0.3 -7.5,-2.3 -9.3,-5.7 -1.1,-2 -1.4,-4.1 -1.3,-6.2 v 0 c -2,-0.6 -4.1,-0.9 -6.4,-0.8"
   id="path28" />
	<path
   class="st1"
   d="m 49.8,137.9 c 0,0 0,0 0,0 0,0 0,0 0,0 m -6.2,-0.7 c 0.1,0 0.1,0.1 0.2,0.1 0,0 0.1,0 0.1,0 -0.1,-0.1 -0.2,-0.1 -0.3,-0.1 m 3.2,0.6 c -0.1,0 -0.2,0 -0.3,0 0.2,0 0.3,0 0.3,0 M 41,136.1 c 0,0 0,0 0,0 0,0.1 0,0.1 0,0 0,0.1 0,0.1 0,0 M 66,119 C 65.4,110.2 59.2,102.9 51.3,99.4 50.8,99.2 50.3,99 49.8,98.8 47.9,98.1 46,97.5 44.1,97.2 c -8.8,-1.6 -17.5,0.5 -24.9,5 -12.2,7.6 -20.6,21.9 -19,36.7 0.8,7 3.8,12.5 4.4,13.6 -3,-10.6 -0.7,-24.7 12.8,-32.8 1.4,-0.9 3,-1.6 4.6,-2.4 3,-1.3 5.8,-1.8 8.5,-1.9 2.3,-0.1 4.4,0.2 6.4,0.7 2.8,0.7 5.3,1.9 7.3,3.3 1,0.7 1.9,1.4 2.6,2.2 1.9,1.9 2.5,3.5 2.7,5 0,0 0,0 0,0 0,0 0,0 0,0 0.3,1.2 0.2,2.4 0,3.5 -0.8,4 -4.3,6.8 -8.7,6 0.9,0.4 1.8,0.8 2.8,1.1 3.8,1.1 8,0.9 11.9,-0.7 0.1,0 0.2,-0.1 0.3,-0.1 0.9,-0.4 1.7,-0.8 2.4,-1.3 5.5,-3.4 8.2,-9.7 7.8,-16.1"
   id="path30" />
	<path
   class="st1"
   d="M 44.3,98.4 C 90.1,86.8 96.2,139.5 80.6,169 126.1,115.5 82.1,73.2 45.6,97.5"
   id="path32" />
	<path
   class="st0"
   d="m 46.8,97.8 c 1,0.3 2.1,0.6 3.1,1 0.5,0.2 1,0.4 1.5,0.6 0.5,0.2 0.9,0.5 1.3,0.7 6.6,-2.5 14.7,-2.3 19.4,0.6 0,0 -0.7,-0.4 -1.3,-0.7 -6.5,-3.3 -14.4,-4.3 -24,-2.2"
   id="path34" />
	<path
   class="st0"
   d="m 4.5,152.1 c 10.4,22.2 39.3,39.5 72.8,29.2 h 0.2 c -45.8,-5.4 -67,-39.7 -54.9,-64.2 -0.2,0.1 -0.4,0.1 -0.6,0.2 -1.7,0.7 -3.2,1.5 -4.6,2.4 -13.3,8 -15.7,21.8 -12.9,32.4"
   id="path36" />
</g>
</svg>
