<?xml version="1.0" encoding="UTF-8" standalone="no"?>
<!-- Generator: Adobe Illustrator 18.0.0, SVG Export Plug-In . SVG Version: 6.00 Build 0)  -->

<svg
   version="1.1"
   id="Capa_1"
   x="0px"
   y="0px"
   viewBox="0 0 347.45867 347.45867"
   xml:space="preserve"
   sodipodi:docname="sz_postaje.svg"
   width="347.45868"
   height="347.45868"
   inkscape:version="1.2.1 (9c6d41e410, 2022-07-14, custom)"
   xmlns:inkscape="http://www.inkscape.org/namespaces/inkscape"
   xmlns:sodipodi="http://sodipodi.sourceforge.net/DTD/sodipodi-0.dtd"
   xmlns="http://www.w3.org/2000/svg"
   xmlns:svg="http://www.w3.org/2000/svg"><defs
   id="defs37" /><sodipodi:namedview
   id="namedview35"
   pagecolor="#505050"
   bordercolor="#ffffff"
   borderopacity="1"
   inkscape:showpageshadow="0"
   inkscape:pageopacity="0"
   inkscape:pagecheckerboard="1"
   inkscape:deskcolor="#505050"
   showgrid="false"
   inkscape:zoom="1.4750372"
   inkscape:cx="138.3016"
   inkscape:cy="139.65749"
   inkscape:window-width="1920"
   inkscape:window-height="1051"
   inkscape:window-x="0"
   inkscape:window-y="0"
   inkscape:window-maximized="1"
   inkscape:current-layer="Capa_1" />
















<rect
   style="display:inline;fill:#1aafee;fill-opacity:1;stroke-width:1.333;stop-color:#000000"
   id="rect1401"
   width="347.45868"
   height="347.45868"
   x="2.1547837e-06"
   y="3.8146973e-06" /><path
   style="display:inline;fill:#ffffff;stroke-width:0.57827"
   d="m 80.05683,317.85036 v -3.87113 l 11.608133,-11.65855 11.608117,-11.65854 -4.382505,-0.39713 c -10.219103,-0.92602 -21.436434,-5.47599 -29.50745,-11.9688 -8.277118,-6.65859 -15.448174,-17.56012 -18.222477,-27.70205 -2.257911,-8.25406 -2.403012,-14.52716 -2.173482,-93.969 0.238317,-82.485865 0.09944,-78.76634 3.280813,-87.861816 5.410715,-15.469024 18.789308,-26.682948 40.39018,-33.854967 16.953521,-5.628973 37.648571,-8.289033 70.091411,-9.009235 49.34997,-1.095526 84.99225,3.374851 104.93827,13.161718 16.70252,8.195398 25.59604,18.918741 29.40063,35.449803 1.17321,5.097557 1.20214,6.778009 1.40895,81.825337 0.13879,50.38993 0.005,78.89758 -0.39354,83.27104 -0.75446,8.29746 -2.25374,13.85372 -5.53973,20.53014 -8.23694,16.7358 -25.31807,28.43662 -43.98128,30.12783 l -4.38251,0.39713 11.60814,11.65854 11.60811,11.65855 v 3.87113 3.87114 h -15.76189 -15.7619 l -15.6053,-15.61332 -15.60527,-15.61332 h -29.2107 -29.21074 l -15.60528,15.61332 -15.60526,15.61332 H 97.553535 80.05683 Z m 30.08235,-59.50673 c 14.1717,-4.20854 20.8498,-20.16711 14.01121,-33.4825 -1.82411,-3.55175 -6.38304,-7.80245 -10.37686,-9.67533 -9.29324,-4.35795 -19.428787,-2.66406 -26.526012,4.43317 -12.522897,12.52289 -7.228608,33.40222 9.836865,38.79416 3.318037,1.04835 9.399597,1.01597 13.054797,-0.0695 z m 139.99783,0.10136 c 4.20274,-1.27558 7.09911,-2.9662 9.92778,-5.79486 9.35974,-9.35975 9.43002,-23.76242 0.16107,-33.03129 -14.61344,-14.61343 -39.59821,-4.17765 -39.64241,16.55807 -0.0219,9.9175 6.89165,19.18214 16.51711,22.13649 3.62979,1.11408 9.60072,1.17436 13.03637,0.13157 z M 158.12342,119.32667 V 88.100042 h -39.0333 -39.03329 v 30.841108 c 0,16.96261 0.173536,31.01461 0.385517,31.22663 0.212002,0.21199 17.777015,0.38552 39.033283,0.38552 h 38.64779 z m 109.15366,-0.14448 0.14949,-31.082051 h -39.03831 -39.03831 v 31.230701 31.23073 l 38.88871,-0.14862 38.88873,-0.14863 z"
   id="path302" /></svg>
