<?xml version="1.0" encoding="UTF-8" standalone="no"?>
<!-- Created with Inkscape (http://www.inkscape.org/) -->

<svg
   width="179mm"
   height="179mm"
   viewBox="0 0 179 179"
   version="1.1"
   id="svg5"
   inkscape:version="1.1.2 (0a00cf5339, 2022-02-04, custom)"
   sodipodi:docname="logo.svg"
   xmlns:inkscape="http://www.inkscape.org/namespaces/inkscape"
   xmlns:sodipodi="http://sodipodi.sourceforge.net/DTD/sodipodi-0.dtd"
   xmlns="http://www.w3.org/2000/svg"
   xmlns:svg="http://www.w3.org/2000/svg">
  <sodipodi:namedview
     id="namedview7"
     pagecolor="#505050"
     bordercolor="#ffffff"
     borderopacity="1"
     inkscape:pageshadow="0"
     inkscape:pageopacity="0"
     inkscape:pagecheckerboard="1"
     inkscape:document-units="mm"
     showgrid="false"
     inkscape:zoom="0.6162631"
     inkscape:cx="341.57489"
     inkscape:cy="415.40699"
     inkscape:window-width="1407"
     inkscape:window-height="1379"
     inkscape:window-x="1920"
     inkscape:window-y="240"
     inkscape:window-maximized="0"
     inkscape:current-layer="layer2"
     inkscape:snap-global="false"
     fit-margin-top="0"
     fit-margin-left="0"
     fit-margin-right="0"
     fit-margin-bottom="0" />
  <defs
     id="defs2" />
  <g
     inkscape:groupmode="layer"
     id="layer2"
     inkscape:label="Layer 2"
     style="display:none"
     transform="translate(17.763504,-30.684235)">
    <circle
       style="fill:#ffffff;fill-opacity:1;fill-rule:evenodd;stroke-width:1.09907;stroke-linejoin:bevel;paint-order:stroke fill markers;stop-color:#000000"
       id="path27479"
       cx="71.843544"
       cy="120.29128"
       r="89.607048"
       inkscape:export-filename="/home/franga2000/DEV/oJPP/zemljevid/ic_trans.png"
       inkscape:export-xdpi="104.86921"
       inkscape:export-ydpi="104.86921" />
  </g>
  <g
     inkscape:label="Layer 1"
     inkscape:groupmode="layer"
     id="layer1"
     transform="translate(17.763504,-30.684235)">
    <g
       id="g1699"
       transform="translate(1.8570691,-1.0645123)">
      <path
         style="fill:#42ac56;stroke-width:0.264583"
         d="m 32.333266,159.61883 c -0.587589,-0.50542 -0.750996,-0.97806 -1.065091,-3.08065 -0.421216,-2.81967 -0.646437,-3.59449 -1.578112,-5.42915 -0.872792,-1.71871 -0.837507,-2.46186 0.285787,-6.019 1.441958,-4.56625 1.051417,-6.04716 -1.844668,-6.99483 -6.233484,-2.03976 -8.59937,-6.2507 -6.374912,-11.34642 1.51128,-3.462 1.436509,-3.6173 -3.684705,-7.65293 -6.366059,-5.01659 -6.431083,-5.77356 -0.602309,-7.01168 1.640451,-0.34846 3.08443,-0.82884 3.687495,-1.22676 3.994728,-2.63582 10.080558,-2.00287 14.152551,1.47193 2.563733,2.18774 3.428995,2.28099 8.225964,0.88647 1.420993,-0.41309 1.420993,-0.41309 1.24754,-1.6435 0,0 4.039528,-1.5448 7.418915,-2.42294 0.920121,-0.24858 0.992777,-0.77284 2.33663,-0.33234 0.561602,0.18409 1.764641,2.00152 2.347868,1.88311 1.454644,-0.29535 -0.169201,-2.02161 1.237906,-2.40634 3.420902,-0.61296 6.09585,-2.14604 7.925957,-4.50377 0.91636,-1.18054 2.678895,-3.46559 3.638371,-4.270219 0,0 0.554726,-1.250139 1.500439,-1.850688 0.351105,-0.23114 0.292477,-1.282695 0.946633,-1.847017 1.35488,-1.168812 3.686635,-1.269097 6.991884,-0.300709 1.336259,0.391504 1.883695,0.41366 4.013845,0.162436 4.814266,-0.567778 5.565883,-0.469522 6.920664,0.9047 0.677992,0.687721 1.311859,1.120193 1.492194,1.01809 0.830808,-0.470403 1.239549,-1.039394 1.239549,-1.725528 0,-1.762482 2.708016,-3.148509 6.680623,-3.419308 2.378446,-0.162129 3.130666,-0.327943 4.593766,-1.012613 2.53036,-1.184098 3.29016,-0.986679 7.02035,1.824101 3.90772,2.944556 5.11632,1.679538 2.5853,-2.705973 -2.22213,-3.85027 0.30261,-9.787472 3.51134,-8.257334 0.85313,0.40683 0.98402,0.395037 2.84962,-0.256766 2.40651,-0.840783 3.91997,-0.882255 4.87186,-0.133496 1.31971,1.03808 1.33804,1.40377 0.13978,2.78825 -1.22935,1.420413 -1.26103,1.967307 -0.23977,4.139946 0.78112,1.661763 1.71655,2.534107 3.08755,2.879328 1.34921,0.339735 1.32669,0.287462 0.48604,1.128112 -1.2745,1.274495 -0.97186,2.208985 1.52585,4.711609 4.1207,4.128799 5.69539,8.519779 2.01976,5.632039 -3.34809,-2.63041 -5.08778,-3.05729 -6.47317,-1.58835 -0.60041,0.63663 -1.10859,0.92605 -1.62601,0.92605 -2.34883,0 -2.45855,1.47489 -0.34122,4.58664 2.34754,3.4501 0.964,4.45457 -3.36118,2.44026 -2.747,-1.27932 -7.93841,0.41284 -5.63466,1.83664 0.44863,0.27726 0.30243,0.63115 -0.74025,1.79185 -0.55265,0.61521 -1.21774,1.45743 -1.47796,1.87159 -0.70008,1.11423 -4.00389,2.55427 -5.86014,2.55427 -1.62303,0 -2.0562,0.39685 -2.38256,2.18281 -0.20425,1.11771 -0.19524,1.11547 -2.37138,0.59002 -3.457567,-0.83487 -4.513929,-0.44569 -3.84106,1.4151 0.321665,0.88955 0.304306,0.97082 -0.289631,1.35573 -2.636864,1.70889 -2.346645,4.20698 0.732327,6.30363 2.538234,1.72842 2.567504,1.78437 2.343064,4.47874 -0.10642,1.27752 -0.42942,2.91905 -0.717776,3.64784 -0.626409,1.58317 -0.519147,2.92773 0.328526,4.11817 0.67481,0.94769 0.57378,1.08913 -1.158953,1.62244 -0.802134,0.24689 -1.192001,0.24033 -1.852083,-0.0311 -1.976334,-0.81281 -3.009093,-0.5795 -4.589288,1.03676 -0.611873,0.62584 -1.232114,0.91732 -2.529668,1.1888 -0.683215,0.0799 -0.918293,0.13944 -1.466213,0.0464 1.019996,-0.31298 0.445935,-0.71458 -1.536514,-0.87538 -1.826895,-0.14819 -1.826895,-0.14819 -4.073953,1.35434 -1.235885,0.82639 -2.578973,1.56891 -2.984645,1.65004 -1.409274,0.28186 -2.308921,2.36375 -2.308921,5.34313 0,2.97295 -3.481856,5.63479 -5.105863,3.90338 -1.299586,-1.38552 -2.43346,-1.53438 -5.345178,-0.7017 -3.514834,1.00515 -3.417795,1.05773 -8.385024,-4.54326 -3.618241,-4.07988 -5.089398,-3.72681 -8.369914,2.00872 -2.227926,3.89522 -4.089701,4.71311 -6.665409,2.92814 -1.366689,-0.94711 -2.059522,-0.80277 -4.694682,0.97808 -3.627614,2.45155 -5.611209,3.03385 -6.813076,2.00005 z m -16.3363,-51.07849 c -10.664644,-72.360227 -5.332322,-36.180113 0,0 z"
         id="path1707"
         sodipodi:nodetypes="sssssssssssccsscsscssssssssssssssssssssssssssssssssssscssccsssssssssssscc" />
      <path
         style="fill:#3b9a49;stroke-width:0.264583"
         d="m 23.610009,167.43904 c -1.484437,-2.33872 -2.161472,-2.56044 -4.685968,-1.53465 -1.994955,0.81062 -2.697046,0.8214 -4.024799,0.0618 -2.413984,-1.38104 -2.030187,-2.61951 1.170457,-3.77694 2.901364,-1.04919 3.334541,-1.29945 3.762946,-2.17395 0.241014,-0.49199 0.522089,-0.6973 0.873313,-0.63792 1.782922,0.30144 2.473689,0.14046 4.386043,-1.02209 3.475187,-2.11264 -1.796131,-9.26885 -8.462957,-11.48911 -3.379292,-1.1254 -3.576236,-1.74449 -1.887462,-5.93315 1.674499,-4.15326 1.408411,-6.01446 -0.766697,-5.36278 -2.05247,0.61493 -3.394851,0.24465 -4.1418834,-1.14251 -0.9055822,-1.68156 -0.1523367,-2.73896 3.8870234,-5.45657 5.437522,-3.65826 4.784737,-6.33318 -1.673854,-6.85897 -6.7380826,-0.54854 -7.9558851,-5.69863 -2.1350162,-9.029 1.7963012,-1.02774 3.2993432,-2.34202 4.0295132,-3.52345 0.476326,-0.77072 0.696892,-0.88006 2.056298,-1.0194 1.943928,-0.19925 2.524916,-0.82455 2.973096,-3.19981 0.384063,-2.03546 0.247847,-1.95613 1.634341,-0.95176 1.361992,0.98662 1.54341,0.98517 3.311691,-0.0265 2.210072,-1.26448 2.923932,-1.16783 4.699366,0.63619 1.601195,1.62699 2.549787,1.93017 3.059454,0.97785 0.461957,-0.86317 1.113383,-0.62506 3.326302,1.21588 2.904003,2.41585 2.744753,2.35599 6.268029,2.35599 1.433849,0 2.405232,1.52798 3.395272,1.91005 0.324384,0.12519 1.486462,-0.7959 1.809028,-0.91218 0.421409,-0.1519 2.842694,-1.23123 3.037788,-0.9088 0.07636,0.1262 4.398708,-1.19201 4.97995,-0.93068 0.422844,0.1901 2.762467,1.86531 2.264751,2.53152 -0.493263,0.66024 -4.537113,0.13687 -4.773323,0.40523 -0.467184,0.53078 -4.9699,1.27471 -5.0033,1.54438 -0.223681,1.80596 -0.419596,0.54952 -1.840589,0.96261 -4.796973,1.3945 -7.265787,0.3668 -9.82952,-1.82094 -4.071993,-3.4748 -10.157823,-4.10775 -14.152551,-1.47193 -0.603065,0.39792 -2.047044,0.8783 -3.687495,1.22676 -5.828774,1.23812 -5.76375,1.99509 0.602309,7.01168 5.121214,4.03563 5.195985,4.19093 3.684705,7.65293 -2.224458,5.09572 0.141428,9.30666 6.374912,11.34642 2.896085,0.94767 3.286626,2.42858 1.844668,6.99483 -1.123294,3.55714 -1.158579,4.30029 -0.285787,6.019 0.931675,1.83466 1.156896,2.60948 1.578112,5.42915 0.673225,4.50666 2.448275,4.75013 7.878167,1.0806 2.63516,-1.78085 3.327993,-1.92519 4.694682,-0.97808 2.575708,1.78497 4.437483,0.96708 6.665409,-2.92814 3.280516,-5.73553 4.751673,-6.0886 8.369914,-2.00872 4.967229,5.60099 4.87019,5.54841 8.385024,4.54326 2.911718,-0.83268 4.045592,-0.68382 5.345178,0.7017 1.624007,1.73141 5.105863,-0.93043 5.105863,-3.90338 0,-2.97938 0.899647,-5.06127 2.308921,-5.34313 0.405672,-0.0811 1.74876,-0.82365 2.984645,-1.65004 2.247058,-1.50253 2.247058,-1.50253 4.073953,-1.35434 1.982449,0.1608 2.725463,0.52657 1.705467,0.83955 -6.392465,1.96152 -8.990755,7.31783 -3.987593,8.22032 1.474922,0.26605 1.52958,0.39106 0.393422,0.89973 -2.757426,1.23454 -2.385933,6.41025 0.600559,8.36707 1.945376,1.27466 1.126837,3.0455 -1.312418,2.83931 -1.92447,-0.16268 -1.92447,-0.16268 -2.988717,0.79881 -1.433208,1.29482 -1.742297,1.23887 -4.453443,-0.80611 -5.451728,-4.11215 -9.379515,-5.0012 -9.046609,-2.04768 0.297731,2.64146 -5.518649,1.36857 -6.315019,-1.38202 -0.515665,-1.78106 -0.838803,-2.1743 -2.458648,-2.99199 -1.932244,-0.9754 -2.808084,-2.00313 -3.178336,-3.72956 -0.818365,-3.8159 -2.977494,-3.50489 -3.621363,0.52164 -0.125539,0.78508 -0.457174,1.41317 -1.069435,2.02543 -0.796613,0.79661 -0.887468,1.03989 -0.887468,2.37627 0,1.32231 -0.06657,1.50587 -0.595313,1.64147 -0.327422,0.084 -1.488281,0.61735 -2.579687,1.18528 -2.365359,1.23086 -3.451781,1.21516 -5.720093,-0.0826 -1.849289,-1.05806 -2.534459,-0.96666 -2.867633,0.38255 -0.357336,1.44705 -2.818945,1.29878 -5.805197,-0.34967 -3.216753,-1.77569 -5.043521,-1.30006 -4.425992,1.15237 0.636035,2.52592 0.550606,2.68403 -1.620147,2.99865 -1.055026,0.1529 -2.108976,0.35569 -2.342112,0.45062 -0.288516,0.11749 -0.574064,-0.064 -0.894147,-0.56828 z"
         id="path1703"
         sodipodi:nodetypes="cssssssssssssssssscsssssssssssssssssssssssssssscsssssssssssssssssssssssscc" />
    </g>
    <g
       id="g986"
       transform="translate(-5.1126087,82.501309)" />
    <g
       id="g6422"
       transform="matrix(0.62386349,-0.15484893,0.15484893,0.62386349,136.62327,41.076724)">
      <path
         id="path6446"
         style="fill:#c52b40;fill-opacity:1;stroke-width:0.999999"
         transform="matrix(0.26458333,0,0,0.26458333,115.74887,-89.668973)"
         d="m -824.60352,372.60938 c -1.11236,-0.002 -2.54522,0.49666 -4.55273,0.95703 -5.88903,1.35046 -6.25,1.59973 -6.25,4.31445 0,0.84557 -0.18221,1.67153 -0.49219,2.36133 0.28364,0.82214 0.55276,1.64829 0.7793,2.48828 0.11095,0.4114 0.20344,0.8288 0.30273,1.24414 0.35762,0.70056 0.61422,1.76362 0.87696,3.51562 0.38169,2.54533 0.92634,5.23468 1.21093,5.97657 0.10902,0.2841 0.0197,0.59205 -0.15234,0.90234 0.16534,1.13691 0.29065,2.27975 0.40234,3.42383 1.46521,0.76262 1.95256,2.88291 2.25391,6.60547 0.14029,1.733 0.18042,2.70677 -0.68359,3.72851 0.11984,0.37741 0.27119,0.91247 0.34765,1.41797 0.056,0.14517 0.11157,0.29053 0.16797,0.43555 0.0868,-0.90001 0.14409,0.16099 0.1543,1.09765 0.03,0.0881 0.0663,0.29421 0.0918,0.38672 0.10937,0.41399 0.15127,0.59504 0.17773,0.77539 0.0203,0.0591 0.0479,0.1279 0.0586,0.16602 0.12475,0.44148 0.17325,0.65219 0.22852,0.88672 1.3486,3.3905 2.79459,9.23364 2.12109,9.94531 0.0762,0.37437 0.0819,0.76503 0.13867,1.14453 -0.01,0.13979 -0.0198,0.28011 -0.0293,0.41992 0.0654,0.22618 0.12725,0.45251 0.17187,0.6836 0.0283,0.14306 0.0363,0.28937 0.0391,0.43555 1.76759,1.00305 2.41039,4.67662 3.39453,12.43945 0.0697,0.55 0.59078,2.125 1.1582,3.5 1.00025,2.42382 2.82245,12.80311 2.49023,14.18555 -0.41658,1.73223 5.0179,26.17734 6.67188,30.00976 3.03312,7.028 10.03186,15.37842 26.86328,32.05469 17.19955,17.04098 19.60277,18.40309 24.25586,13.75 4.76807,-4.76807 3.55065,-6.72553 -17.3418,-27.89844 -15.0883,-15.29083 -19.70728,-20.5911 -21.00781,-24.10156 -1.93432,-5.22122 -6.72027,-30.07815 -6.01172,-31.22461 0.26333,-0.42607 0.0534,-0.77539 -0.4668,-0.77539 -1.0339,0 -3.49253,-11.56303 -3.10546,-14.60742 0.13222,-1.03987 -0.0283,-2.56758 -0.35743,-3.39258 -0.32909,-0.825 -2.89923,-13.875 -5.71093,-29 -4.40847,-23.71426 -4.85822,-28.24513 -8.19532,-28.25195 z m -141.10742,45.88476 c -1.10178,0.0545 -2.52794,0.55691 -4.51953,1.05859 -5.85596,1.47515 -6.27899,1.76574 -5.73047,3.95118 0.67245,2.67923 0.88667,5.02417 0.58985,7.25586 0.0286,0.11396 0.0586,0.22749 0.0859,0.34179 0.19159,0.80251 0.3853,1.60394 0.54102,2.41406 0.34303,1.78697 0.564,3.67575 0.81836,5.47461 0.005,0.0342 0.003,0.0252 0.008,0.0586 0.56321,1.06488 0.931,2.94808 1.44531,5.6582 0.0677,0.35679 0.0811,0.51945 0.14063,0.83789 0.17527,0.31995 0.31206,0.71962 0.38867,1.20508 0.12714,0.80587 0.25658,1.61195 0.38281,2.41797 0.33208,2.12094 0.45588,2.8139 0.67969,4.86719 0.0292,0.0256 0.0658,0.0356 0.0937,0.0644 1.1684,1.21215 13.38659,60.00771 13.38281,64.39453 -0.002,2.03518 0.16861,2.07232 3.74805,0.79492 2.06249,-0.73604 5.3438,-1.35862 7.29102,-1.38281 3.54024,-0.0439 3.54014,-0.0442 0.0605,-17.16992 -2.3309,-11.47508 -3.05834,-15.25855 -2.69531,-16.95703 -0.003,-0.024 -0.007,-0.0485 -0.01,-0.0723 -0.11641,-0.90743 -0.13646,-1.8268 -0.1289,-2.74023 10e-5,-0.0169 10e-4,-0.0323 0.002,-0.0488 -0.0674,-0.29629 -0.13861,-0.56839 -0.20703,-0.91016 -0.005,-0.0226 -0.007,-0.0457 -0.0117,-0.0684 -0.62753,-0.96311 -1.04895,-2.87411 -1.60937,-6.61133 -0.24683,-1.64583 -0.31853,-2.70456 -0.26172,-3.55664 -0.0143,-0.0439 -0.0275,-0.0878 -0.0352,-0.13281 -0.0745,-0.24593 -0.1385,-0.49129 -0.23828,-0.73242 0.005,-0.11339 0.003,0.0207 -0.11328,-0.25781 -0.0212,-0.0556 -0.0433,-0.11449 -0.0547,-0.17383 -0.002,-0.0231 0.0447,0.0831 0.0371,0.0606 -0.0677,-0.19276 -0.14992,-0.32483 -0.0898,-0.22657 -0.11717,-0.31687 -0.26432,-0.62239 -0.35352,-0.94921 1.5e-4,-0.0523 -7.8e-4,-0.10587 0,-0.15821 -6.8e-4,0.0212 -4.6e-4,0.0425 -0.002,0.0586 -0.005,-0.008 -0.0178,-0.0405 -0.0234,-0.0547 -0.0344,-0.0843 -0.0733,-0.16654 -0.10351,-0.25196 -0.0843,-0.22727 -0.20277,-0.60544 -0.27344,-0.82617 l -0.004,-0.002 c -0.0401,-0.12499 -0.0635,-0.24008 -0.0742,-0.34766 -1.14405,-1.87782 -2.28018,-7.66234 -5.4707,-23.61914 -3.99206,-19.96548 -4.3802,-23.82763 -7.68555,-23.66406 z m 137.95899,5.26953 c -0.004,-0.007 -0.005,-0.006 -0.002,0.006 0.0195,0.0727 0.0416,0.14442 0.0625,0.2168 -0.003,-0.0274 -0.006,-0.0547 -0.01,-0.082 -0.005,-0.036 -0.0391,-0.12041 -0.0508,-0.14063 z m -120.72657,42.18555 c -10e-4,-0.004 -0.0303,0.005 -0.0332,0.002 0.002,0.0116 0.002,0.0197 0.004,0.0312 4.6e-4,-0.006 0.031,-0.0283 0.0293,-0.0332 z m -3.5957,0.74609 c -6.4e-4,-0.0123 0.005,0.29837 0,0.48438 0.002,-0.14984 0.007,-0.29938 0.002,-0.44922 -5.3e-4,-0.0221 -0.002,-0.0331 -0.002,-0.0352 z m 5.23828,14.3125 c 6.4e-4,0.006 9.6e-4,0.0117 0.002,0.0176 10e-4,0.003 0.009,-4e-5 0.01,0.004 10e-4,0.005 0.003,0.009 0.004,0.0137 0.0179,2.5e-4 0.0347,6.5e-4 0.0508,0.002 -0.009,-0.0167 -0.0507,-0.0228 -0.0664,-0.0371 z" />
      <path
         style="fill:#c1bdc2;stroke-width:0.264583"
         d="m -135.4943,66.39938 c 0.045,-3.387632 -0.0492,-3.271385 -0.21858,-6.646632 0,-4.588071 0.31402,-5.524823 1.85208,-5.524823 1.53806,0 1.85208,0.936752 1.85208,5.524823 -0.0688,3.15304 -0.28183,5.067669 -0.21858,6.646632 0.0863,2.117288 0.0863,2.117288 -1.6335,2.117288 -1.71979,0 -1.71979,0 -1.6335,-2.117288 z"
         id="path6442"
         sodipodi:nodetypes="ccsccsc" />
      <path
         id="path6440"
         style="fill:#e6586b;fill-opacity:1;stroke-width:0.999999"
         transform="matrix(0.26458333,0,0,0.26458333,115.74887,-89.668973)"
         d="m -837.19922,382.99805 c -1.79013,0.13932 -4.68583,1.25682 -9.55273,3.27148 -19.51956,8.08015 -30.39407,16.42457 -55.73633,42.76758 -20.10134,20.89512 -30.33532,29.49205 -42.25391,35.49414 -7.108,3.57954 -8.15584,6.67576 -5.02148,14.84375 2.52268,6.57408 33.01293,-14.47954 53.8125,-37.1582 25.7111,-28.03394 35.7481,-35.65057 60.89258,-46.20508 1.7224,-0.72298 2.64302,-1.72917 2.33007,-2.54492 -0.28471,-0.74189 -0.82924,-3.43124 -1.21093,-5.97657 -0.48471,-3.23216 -0.95817,-4.67131 -3.25977,-4.49218 z m 6.07227,27.86328 c -17.5654,0 -47.53359,31.96418 -70.78321,75.5 -11.35139,21.25596 -19.96925,36.05614 -21.57226,37.04687 -0.53624,0.33141 1.17442,3.01908 3.80078,5.97266 2.62636,2.95357 4.89721,5.39554 5.04687,5.42578 0.93918,0.19058 12.95757,-19.94755 21.90235,-36.69922 23.66676,-44.32291 35.37231,-58.64205 57.89648,-70.83594 3.81139,-2.06338 7.0723,-3.85727 7.24805,-3.98437 1.05925,-0.76633 -2.26143,-12.42578 -3.53906,-12.42578 z m -143.60352,26.55273 c -1.73491,0.23757 -11.28777,7.76581 -25.00586,19.73438 -2.65657,2.31775 -6.12537,4.88789 -7.70707,5.71289 -1.5817,0.825 -3.0081,2.04344 -3.1699,2.70703 -0.264,1.08283 -31.7612,28.0839 -47.5859,40.79297 -6.2258,5 -6.2261,5 -3.3242,7.5 6.2374,5.37359 8.4699,14.76041 4.832,20.3125 -1.515,2.3121 -1.5148,2.3121 32.1348,8.55078 18.5072,3.43128 34.42056,6.6584 35.36129,7.17187 0.94076,0.5134 2.29077,0.73167 3,0.48438 0.70926,-0.24731 2.86407,-0.0609 4.78906,0.41406 1.92503,0.47493 3.78762,0.90853 4.14063,0.96485 0.74735,0.11924 1.44687,-2.53719 2.39062,-9.08204 0.67559,-4.6852 0.6761,-4.68668 -3.17773,-5.38281 -2.1196,-0.38287 -4.30352,-0.96478 -4.85352,-1.29492 -0.55,-0.33013 -2.1577,-0.66575 -3.57227,-0.74414 -8.18887,-0.45354 -65.22028,-11.98882 -65.72068,-13.29297 -0.3451,-0.89918 1.3062,-3.08958 4.3691,-5.79687 9.1219,-8.06297 45.5489,-38.80065 46.3086,-39.07618 0.4141,-0.15015 3.42157,-2.73786 6.68361,-5.75 3.26203,-3.01212 6.21674,-5.47635 6.56445,-5.47656 0.34779,-2.1e-4 2.37281,-1.70302 4.5,-3.7832 2.12723,-2.08019 5.81008,-5.41174 8.18555,-7.4043 4.23696,-3.55404 4.84539,-13.07254 1.09961,-17.21094 -0.0451,-0.0498 -0.12653,-0.0666 -0.24219,-0.0508 z"
         sodipodi:nodetypes="sssssssssssssscsscsssssssssssssssscssssssssss" />
      <path
         style="fill:#b3aeb4;stroke-width:0.264583"
         d="m -142.45522,21.116315 c -0.0727,-0.196998 -0.36082,-1.483151 -0.64023,-2.858117 -0.29306,-1.442153 -0.68007,-2.625751 -0.91466,-2.797286 -0.31978,-0.233822 -0.0766,-0.306445 1.13836,-0.339928 0.84975,-0.02342 1.83721,-0.153678 2.19435,-0.289465 0.58549,-0.222602 0.63797,-0.187346 0.53362,0.3585 -0.0636,0.332962 0.0834,1.581504 0.3267,2.774542 0.52623,2.580042 0.46802,2.804583 -0.78826,3.040264 -0.53127,0.09967 -1.13509,0.246115 -1.34181,0.325442 -0.20672,0.07933 -0.43535,-0.01696 -0.50807,-0.213952 z m 37.30053,-12.1340533 c -0.0715,-0.1156943 -0.27136,-1.1195181 -0.44411,-2.2307178 -0.36061,-2.3195729 -0.33208,-2.3743231 2.04832,-3.9296074 0.77833,-0.508537 1.34021,-1.0834766 1.3885,-1.4207753 0.19078,-1.33273004 -2.8821,-3.4853058 -3.84025,-2.6901139 -0.19508,0.1619038 -0.43119,0.2178738 -0.52469,0.1243753 -0.0935,-0.093496 -0.0311,-0.1699948 0.13869,-0.1699948 0.20523,0 0.30868,-0.6092269 0.30868,-1.8179229 0,-1.8179255 0,-1.8179255 1.1714,-1.5990833 5.388704,1.0067183 8.347127,6.7938117 4.75688,9.3051281 -0.67523,0.472313 -1.4176,0.9946719 -1.6497,1.1607958 -0.2834,0.2028428 -0.42531,0.7218495 -0.43206,1.5802239 -0.01,1.2229967 -2.36719,2.5848441 -2.92166,1.6876923 z"
         id="path6438"
         sodipodi:nodetypes="sssssscsssssssssssssscs" />
      <path
         style="fill:#798bb0;stroke-width:0.264583"
         d="m -144.2457,56.42089 c -0.5457,-0.05953 -0.99218,-0.229577 -0.99218,-0.377876 0,-0.245081 0.84445,-0.167732 2.1521,0.19712 0.46636,0.130125 0.59183,-0.195249 0.9005,-2.335194 0.18016,-1.249026 0.18016,-1.249026 -0.91292,-1.423815 -0.60119,-0.09613 -1.15589,-0.276421 -1.23266,-0.400635 -0.15013,-0.242919 1.21052,-0.03623 2.22952,0.338677 0.52695,0.193876 0.59186,0.340773 0.42105,0.952839 -0.11107,0.397994 -0.27236,1.259409 -0.35841,1.914252 -0.17018,1.294892 -0.26957,1.345991 -2.207,1.134632 z m -19.92298,-4.759513 c 0.88019,-1.817979 0.28446,-4.218374 -1.30545,-5.260123 -0.37529,-0.245901 -0.62943,-0.500009 -0.56476,-0.564684 0.22903,-0.229026 1.4843,0.784913 1.9879,1.605711 0.83986,1.368854 0.84681,3.482607 0.0146,4.44123 -0.54225,0.624623 -0.54225,0.624623 -0.13229,-0.222134 z m 15.49121,-15.359281 c 0,-0.39297 2.90473,-2.805555 3.1194,-2.590882 0.10092,0.100917 -0.047,0.312465 -0.32868,0.470109 -0.28169,0.157641 -1.02484,0.759187 -1.65144,1.336767 -0.6266,0.577583 -1.13928,0.930384 -1.13928,0.784006 z"
         id="path6436" />
      <path
         style="fill:#837c85;stroke-width:0.264583"
         d="m -137.82955,62.931204 c -1.3592,-0.81483 -2.36142,-1.82361 -2.95122,-2.97054 -0.74111,-1.223856 -0.50355,-0.565188 -1.02934,-2.434499 -0.24705,-1.052033 -0.10646,-2.919804 0.30233,-4.016478 0.53968,-1.698914 0.51596,-1.776791 1.83479,-3.14121 0.24577,-0.132876 0.90991,-0.550738 1.47587,-0.928579 2.42782,-1.620858 5.37555,-1.722215 8.22173,-0.282702 5.1521,2.60577 5.44243,10.179158 0.51644,13.471248 -1.78873,1.195427 -1.75532,1.243077 -1.76235,-2.51354 -0.01,-5.219234 -0.50216,-6.416146 -2.63952,-6.416146 -2.13736,0 -2.62975,1.196912 -2.63952,6.416146 -0.003,1.85539 -0.0956,3.372997 -0.20475,3.372447 -0.10914,-5.3e-4 -0.61516,-0.25081 -1.12448,-0.556147 z m -31.75,-9.606281 c 0,-0.144338 -0.37402,-0.648319 -0.83115,-1.119962 -2.84677,-2.937119 0.53961,-7.413535 4.39095,-5.804344 2.30409,0.962712 2.79572,4.61715 0.81522,6.059844 -0.36897,0.268777 -0.67085,0.63228 -0.67085,0.807789 0,0.218694 -0.58279,0.319106 -1.85208,0.319106 -1.04821,0 -1.85209,-0.113906 -1.85209,-0.262433 z"
         id="path6432"
         sodipodi:nodetypes="sccccssscscssssssssss" />
      <path
         style="fill:#716873;stroke-width:0.264583"
         d="m -168.87708,59.300321 c -1.35405,-1.496211 -0.51893,-5.469271 1.14962,-5.469271 1.5875,0 1.5875,0 1.5875,2.53868 0,3.197756 -1.26735,4.554677 -2.73712,2.930591 z"
         id="path6428"
         sodipodi:nodetypes="ssss" />
      <path
         style="fill:#635a66;stroke-width:0.264583"
         d="m -152.13708,31.804489 c -0.64143,-0.727604 -0.64143,-0.727604 0.0692,-0.102159 0.71059,0.625446 0.71059,0.625446 1.47871,0.0785 1.47433,-1.049814 1.54925,-1.288555 0.70134,-2.234864 -0.7619,-0.850328 -0.7619,-0.850328 0.15811,0.02794 0.92,0.878271 0.92,0.878271 -0.2385,1.918229 -1.3792,1.238068 -1.35572,1.234686 -2.16882,0.312357 z"
         id="path6426" />
      <path
         id="path6424"
         style="fill:#5c525f;stroke-width:0.999999"
         d="m -852.8418,320.86133 c -17.07503,0 -25.46677,6.47479 -14.25,10.99414 9.79079,3.9448 25.68555,0.85396 25.68555,-4.99414 0,-6 -6.6e-4,-6 -11.43555,-6 z m -125.75586,47.52539 c -7.74238,0.0323 -14.83686,0.79524 -18.26562,2.45508 -9.14622,4.42762 -10.16612,16.75418 -1.78125,21.52929 16.4451,9.36539 59.62952,-6.84372 50.19336,-18.83984 -2.53677,-3.22498 -17.24251,-5.19836 -30.14649,-5.14453 z m -89.45504,57.2793 c -52.5905,-1.06315 -102.7997,41.43046 -104.5274,94.40429 -0.1726,5.29217 -0.1714,5.29102 -0.8261,-1.20898 -0.4753,-4.71663 -0.6543,-2.52171 -0.6543,8 0,9.42988 0.2008,12.22719 0.5761,8 0.5774,-6.5 0.578,-6.5 1.291,2 3.8686,46.11824 44.384,86.56238 91.0645,90.90234 42.2266,3.92588 81.84828,-18.76734 101.24999,-57.99219 4.75941,-9.6222 0.31325,-23.78178 -4.9375,-15.7246 -0.11274,0.17294 -1.41436,3.46445 -2.89257,7.31445 -28.43402,74.05583 -139.07042,73.57812 -167.72462,-0.72461 -33.3791,-86.55496 66.8672,-161.07298 140.7109,-104.59766 5.562,4.2538 6.8131,4.24698 10.7149,-0.0645 4.38151,-4.84153 -21.3233,-21.62238 -41.4961,-27.08984 -7.4758,-2.02617 -15.0359,-3.06688 -22.5488,-3.21875 z m 302.37692,0.14257 c -11.43639,-0.2899 -23.10605,1.38405 -34.5625,5.31055 -6.33149,2.17001 -6.33173,2.17073 -5.66797,6.70703 0.89703,6.13047 1.25573,6.31681 7.53516,3.92774 98.8592,-37.61194 169.56637,105.67569 79.69921,161.50976 -90.91075,56.48246 -188.16305,-65.1807 -112.54687,-140.79687 6.5478,-6.54782 9.54013,-17.60547 4.76367,-17.60547 -1.56657,0 -17.96264,16.24148 -22.5293,22.3164 -46.30037,61.59316 -5.21106,153.42094 71.85547,160.58594 54.78763,5.0937 105.99036,-37.02483 110.50977,-90.90234 0.71301,-8.5 0.71166,-8.5 1.28906,-2 0.3755,4.22719 0.57813,1.42988 0.57813,-8 0,-9.42988 -0.20263,-12.22719 -0.57813,-8 -0.5774,6.5 -0.57605,6.5 -1.28906,-2 -4.33272,-51.65195 -49.49894,-89.79648 -99.05664,-91.05274 z m -223.17188,44.51368 c -3.31725,-0.0988 -6.38552,7.10027 -3.67382,11.83984 7.08253,12.37895 11.11523,27.71312 11.11523,42.26953 0,8.34227 0.0166,8.39714 2.75,9 1.51249,0.33359 3.19997,0.756 3.75,0.93945 0.55,0.18345 1.07537,0.36872 1.16797,0.41211 9.96363,4.66992 -0.68589,-47.66393 -12.8418,-63.10742 -0.72419,-0.92005 -1.50206,-1.33072 -2.26758,-1.35351 z m 49.44141,130.57031 c -15.58409,0 -23.36873,5.93599 -14,10.67578 1.58419,0.80147 6.71269,1.26367 14,1.26367 13.86663,0 16.5,-0.95307 16.5,-5.9707 0,-5.01763 -2.63337,-5.96875 -16.5,-5.96875 z"
         transform="matrix(0.26458333,0,0,0.26458333,115.74887,-89.668973)" />
    </g>
    <g
       id="g21052"
       transform="translate(-358.52671,-23.077075)" />
    <g
       id="g20981"
       transform="matrix(0.35512366,0,0,0.35512366,24.303473,124.88324)">
      <path
         style="fill:#8ac9fa;stroke-width:0.264583"
         d="m 213.2321,61.12163 10.64947,-0.07223 10.64948,0.07223 10.64948,0.07223 h -21.29896 -21.29895 z m 45.37604,5e-5 8.40052,-0.07371 8.40052,0.07371 8.40052,0.07371 h -16.80104 -16.80105 z m -56.4224,-0.330864 v -0.352777 l 0.17639,0.176387 0.17639,0.17639 -0.17639,0.176389 -0.17639,0.176388 z m 43.12708,0.132291 v -0.132291 h 0.13229 0.1323 v 0.132291 0.132292 h -0.1323 -0.13229 z m 38.68075,-0.79375 0.01,-0.79375 0.12197,0.468056 0.12198,0.468056 -0.13178,0.325694 -0.13177,0.325694 0.01,-0.79375 z m -34.28326,-3.282979 0.10043,-3.547562 V 44.477108 35.6554 h 7.55454 7.55454 l 1.90431,0.431414 1.90432,0.431411 1.36921,0.603583 1.36921,0.603584 1.54121,1.056544 1.5412,1.056548 1.09992,1.149604 1.09992,1.149604 1.44027,2.023279 1.44028,2.023282 1.20059,2.474634 1.2006,2.474637 0.65556,2.116667 0.65556,2.116667 0.18435,0.773808 0.18435,0.773808 -0.37691,-0.312803 -0.3769,-0.312804 -16.50692,0.06816 -16.50692,0.06816 -0.16657,1.984375 -0.16658,1.984375 z m -47.25998,3.282979 v -0.132291 h 0.13229 0.13229 v 0.132291 0.132292 h -0.13229 -0.13229 z m 0.26458,-0.529166 v -0.132292 h 0.13229 0.13229 v 0.132292 0.132291 h -0.13229 -0.13229 z m 0.26458,-0.529167 v -0.132292 h 0.13229 0.1323 v 0.132292 0.132292 h -0.1323 -0.13229 z m 80.69791,-1.190625 v -0.352777 l 0.17639,0.176387 0.17639,0.17639 -0.17639,0.17639 -0.17639,0.176387 z m -79.90416,-0.132291 v -0.132292 h 0.13229 0.1323 v 0.132292 0.132291 h -0.1323 -0.13229 z m 1.77862,-2.645834 0.9395,-1.322916 1.42501,-1.756513 1.42501,-1.756511 2.10291,-2.009108 2.10291,-2.009111 2.07192,-1.536229 2.07191,-1.536229 2.1737,-1.274352 2.1737,-1.274355 2.62674,-1.156025 2.62674,-1.156026 2.61337,-0.776375 2.61338,-0.776372 2.75906,-0.470516 2.75906,-0.470517 3.70417,-0.01672 3.70416,-0.01672 0.0692,10.31875 0.0691,10.318749 h -20.48552 -20.48553 l 0.93951,-1.322917 z"
         id="path21001" />
      <path
         style="fill:#fcc164;stroke-width:0.264583"
         d="m 199.01074,105.87795 -0.92604,-0.40049 -0.8599,-0.83169 -0.85989,-0.83168 v -0.29307 -0.29307 l 0.85989,-0.83224 0.8599,-0.83224 0.98369,-0.41029 0.98369,-0.41028 h 1.02522 1.02521 l 1.13662,0.60105 1.13661,0.60106 0.64394,0.83501 0.64394,0.835 -1.0603,1.0603 -1.0603,1.0603 -1.00937,0.28029 -1.00937,0.28029 -0.79375,-0.009 -0.79375,-0.009 -0.92604,-0.40049 z m 73.34056,0.0796 -0.87507,-0.33276 -0.91087,-0.89061 -0.91087,-0.89061 v -0.34698 -0.34698 l 0.96767,-0.93979 0.96767,-0.93979 1.08011,-0.29084 1.08012,-0.29085 1.16155,0.15921 1.16156,0.15921 0.86433,0.53418 0.86432,0.53418 0.4516,0.68924 0.4516,0.68923 -0.33239,0.62108 -0.33239,0.62107 -0.98928,0.68557 -0.98928,0.68557 -1.41766,0.11171 -1.41766,0.11171 z M 178.10866,84.267016 v -0.639194 l 0.51324,-1.491765 0.51325,-1.491769 1.07397,-2.055384 1.07398,-2.055381 0.94298,-0.992187 0.94299,-0.992188 h 4.96941 4.96942 l 0.43788,0.483854 0.43788,0.483855 -0.006,1.963541 -0.006,1.963542 -0.53833,1.190625 -0.53832,1.190625 -0.84493,0.883081 -0.84492,0.883081 -1.05834,0.572127 -1.05833,0.572127 -5.49011,0.0853 -5.4901,0.0853 V 84.26701 Z m 10.66461,0.05621 1.10935,-0.280082 1.2217,-0.887664 1.22171,-0.887664 0.69652,-1.397743 0.69653,-1.397744 V 77.6722 75.872065 h -0.26459 -0.26458 v 0.216958 0.216959 l -0.92675,1.082698 -0.92675,1.082699 -1.25606,0.618572 -1.25607,0.618572 -4.36562,0.132292 -4.36563,0.132291 -0.58789,1.229916 -0.58789,1.229918 -0.17353,1.085186 -0.17353,1.085189 h 4.54687 4.54686 z m 110.10794,-9.193841 -0.01,-6.533364 -0.19366,-0.917774 -0.19366,-0.917773 0.3278,0.327797 0.3278,0.327798 0.10573,6.895044 0.10575,6.895047 -0.23014,0.228295 -0.23014,0.228296 -0.01,-6.533366 z M 286.58782,73.09394 v -0.132292 h 0.13229 0.13229 v 0.132292 0.132292 h -0.13229 -0.13229 z m 0.52917,-0.264583 v -0.132292 h 0.13229 0.13229 v 0.132292 0.132291 h -0.13229 -0.13229 z m 0.52916,-0.264584 v -0.132291 h 0.1323 0.13229 v 0.132291 0.132292 h -0.13229 -0.1323 z m 0.52917,-0.264583 v -0.132292 h 0.13229 0.13229 v 0.132292 0.132292 h -0.13229 -0.13229 z m 0.52917,-0.264583 v -0.132292 h 0.13229 0.13229 v 0.132292 0.132291 h -0.13229 -0.13229 z m 0.52916,-0.264584 v -0.132291 h 0.1323 0.13229 v 0.132291 0.132292 h -0.13229 -0.1323 z m 0.52917,-0.264583 v -0.132291 h 0.13229 0.13229 v 0.132291 0.132292 h -0.13229 -0.13229 z m 2.91042,-1.5875 v -0.132291 h 0.13229 0.13229 v 0.132291 0.132292 h -0.13229 -0.13229 z m 0.52916,-0.264583 v -0.132292 h 0.1323 0.13229 v 0.132292 0.132292 h -0.13229 -0.1323 z m 0.52917,-0.264583 v -0.132292 h 0.13229 0.13229 v 0.132292 0.132291 h -0.13229 -0.13229 z m 0.52917,-0.264584 v -0.132291 h 0.13229 0.13229 v 0.132291 0.132292 h -0.13229 -0.13229 z m 0.52916,-0.264583 v -0.132292 h 0.1323 0.13229 v 0.132292 0.132292 h -0.13229 -0.1323 z m 0.52917,-0.264583 v -0.132292 h 0.13229 0.13229 v 0.132292 0.132291 h -0.13229 -0.13229 z m 0.52917,-0.264584 v -0.132291 h 0.13229 0.13229 v 0.132291 0.132292 h -0.13229 -0.13229 z m 0.52916,-0.264583 v -0.132292 h 0.1323 0.13229 v 0.132292 0.132292 h -0.13229 -0.1323 z m 0.52917,-0.264583 v -0.132292 h 0.13229 0.13229 v 0.132292 0.132291 h -0.13229 -0.13229 z M 208.32628,7.6757141 207.79361,7.2126933 207.62352,6.2205059 207.45343,5.2283184 h 0.27657 0.27658 v 0.6788523 0.6788525 l 0.27389,0.5117724 0.27389,0.5117727 h 3.94222 3.94221 l 0.67807,-0.2577997 0.67806,-0.2577996 1.69523,-1.5770661 1.69523,-1.5770661 1.28195,-0.6460762 1.28195,-0.6460762 0.92604,-0.1954435 0.92605,-0.1954432 0.33073,-0.266428 0.33072,-0.266428 0.004,-0.82749914 0.004,-0.82749888 0.25648,-0.39687498 0.25648,-0.39687499 0.004,1.25677078 0.004,1.25677081 -0.52917,0.5291666 -0.52916,0.5291666 h -0.6192 -0.6192 l -1.59517,0.7971136 -1.59516,0.7971134 -1.74649,1.6003415 -1.74649,1.6003412 -0.86605,0.2483784 -0.86604,0.2483783 h -3.61045 -3.61046 z m -0.58429,-11.8212046 v -7.2571425 l 0.41578,-0.415774 0.41577,-0.415774 h 4.23183 4.23183 l 0.57791,0.300019 0.57792,0.300018 1.58869,1.511679 1.58869,1.5116793 0.92485,0.4826039 0.92486,0.4826037 1.4552,0.450306 1.45521,0.4503057 0.34282,0.6288302 0.34281,0.6288301 -0.13969,1.3229167 -0.13968,1.3229166 -0.45214,0.3307291 -0.45213,0.3307292 -0.54474,2.087e-4 -0.54475,2.088e-4 -1.5875,0.756172 -1.5875,0.75617194 -1.91314,1.72307136 -1.91315,1.7230714 -0.83191,0.1663811 -0.8319,0.1663811 h -4.06797 -4.06797 z"
         id="path20999" />
      <path
         id="path20997"
         style="fill:#ffcc00;stroke-width:0.264583"
         d="m 284.07487,25.032779 -21.82813,0.11317 -21.82812,0.113173 -2.11667,0.314192 -2.11667,0.314193 -3.11144,0.638204 -3.11145,0.638204 -3.56256,1.190625 -3.56259,1.190107 -2.98326,1.420587 -2.98328,1.420067 -2.51251,1.533242 -2.51201,1.53272 -2.38278,1.797825 -2.38228,1.797304 -2.24896,2.040703 -2.24896,2.040704 -2.34561,2.547647 -2.34558,2.548165 -2.41692,3.218407 -2.41689,3.21841 -1.70482,2.734715 -1.70481,2.734718 -1.90685,3.704166 -1.90738,3.704167 -1.22989,3.175 -1.22989,3.175 -0.21291,0.396875 -0.21291,0.396875 5.02139,-0.07752 5.0214,-0.07751 0.49609,0.449069 0.49662,0.449069 -0.006,2.009696 -0.006,2.009696 -0.53795,1.190625 -0.53848,1.190625 -0.8449,0.88315 -0.84492,0.882634 -1.05833,0.572574 -1.05833,0.572058 -5.39605,0.08578 -5.39607,0.0863 -0.18447,-0.298173 -0.18396,-0.29869 -0.30697,2.196766 -0.30695,2.196764 v 4.511871 4.512384 l 0.75809,1.195276 0.75808,1.195282 0.93536,0.44442 0.93586,0.4439 h 2.80757 2.80757 l 0.62013,-1.38907 0.62011,-1.389063 1.22475,-1.618506 1.2242,-1.617988 1.39319,-1.064535 1.39322,-1.064017 1.34152,-0.671277 1.34202,-0.671793 1.60663,-0.416512 1.60713,-0.415997 h 2.22104 2.22158 l 1.55236,0.404627 1.55236,0.404109 1.8769,0.97255 1.87638,0.97255 1.7296,1.738913 1.72961,1.738914 1.04852,2.042252 1.04852,2.042773 21.98158,10e-4 21.98161,5.3e-4 1.03198,-2.032959 1.03248,-2.033466 1.72445,-1.74098 1.72498,-1.740463 1.85208,-0.965832 1.85209,-0.965833 1.62573,-0.41961 1.62573,-0.419614 h 2.17249 2.17247 l 1.62573,0.419614 1.62576,0.41961 1.85209,0.966867 1.85208,0.966867 1.72701,1.722893 1.72702,1.722373 1.05111,2.049489 1.05111,2.048974 3.51864,10e-4 3.51917,0.001 0.71519,-0.36949 0.7147,-0.37 0.50331,-0.556046 0.50385,-0.556554 h 0.25321 0.25323 v 0.01963 c 0.0461,-0.0077 0.0951,-0.01225 0.14674,-0.01344 0.0921,-0.0021 0.19341,0.0075 0.30231,0.02945 l -0.009,-0.346231 c -0.0666,-6.208551 -0.0282,-11.224932 -0.0999,-17.283716 l -5.07619,0.07648 -5.07616,0.077 -0.90847,-0.379304 -0.90797,-0.379823 -0.76274,-0.998905 -0.76222,-0.999424 -0.0915,-2.306317 -0.0915,-2.30632 0.28059,-0.524 0.28009,-0.523999 6.22443,-3.227192 6.22443,-3.22771 0.22426,0.139009 0.22429,0.138494 -0.3664,-2.701129 -0.36637,-2.70061 -0.6749,-3.042708 -0.67437,-3.042708 -0.91882,-2.778125 -0.91881,-2.778125 -1.6681,-3.439583 -1.66864,-3.439584 -1.60145,-2.394169 -1.60147,-2.393651 -1.99366,-2.280481 -1.99369,-2.279965 1.32395,-1.71514 1.32395,-1.714624 0.24805,-0.864548 0.24804,-0.865063 -0.16121,-0.683678 -0.16123,-0.68368 -0.63355,-0.851628 -0.63357,-0.851112 -0.98547,-0.293005 z M 249.8108,35.655387 h 7.55456 7.5546 l 1.90426,0.431498 1.90428,0.431498 1.36891,0.603581 1.36943,0.603581 1.54098,1.056264 1.54152,1.056786 1.09969,1.149799 1.10019,1.149284 1.4402,2.02365 1.44024,2.023131 1.20044,2.474267 1.20097,2.474785 0.70175,2.231906 0.70228,2.232422 0.41704,2.465999 0.41651,2.465998 -0.32814,0.394809 -0.32816,0.395325 h -16.61708 -16.61758 l -0.45423,-0.453721 -0.45374,-0.454234 0.17055,-3.556373 0.17053,-3.556889 v -8.821685 z m -4.36563,0.132291 0.0687,12.550656 0.0687,12.550653 -0.33329,0.211357 -0.33333,0.211873 h -21.03432 -21.03437 l -0.37878,-0.239778 -0.37881,-0.239779 1.27125,-2.203482 1.27074,-2.204 1.48878,-2.087211 1.48932,-2.087729 2.29856,-2.431894 2.2991,-2.432407 2.14302,-1.698088 2.14302,-1.698087 2.66443,-1.637626 2.66393,-1.637628 2.74865,-1.203544 2.74815,-1.204061 2.59985,-0.772046 2.60035,-0.772562 2.75902,-0.470773 2.759,-0.470255 3.70416,-0.01654 z m -14.20119,35.454166 h 5.55778 5.55781 l 0.68316,0.641306 0.68265,0.64182 v 0.726054 0.725538 l -0.16433,0.428397 -0.16434,0.428398 -0.74879,0.387056 -0.74827,0.387056 -4.97438,-0.02066 -4.97385,-0.02119 -0.39687,-0.144692 -0.39688,-0.145212 -0.59531,-0.541567 -0.59531,-0.541571 v -0.732771 -0.733287 l 0.63873,-0.742075 z"
         sodipodi:nodetypes="ccccccccccccccccccccccccccccccccccccccccccccccccccccccccccccccccccccccccccccccccccccccccccccccccccccccccscccccccccccccccccccccccccccccccccccccccccccccccccccccccccccccccccccccccccccccccccccccccccccccccccccccccccccccccccccc" />
      <path
         style="fill:#71bef1;stroke-width:0.264583"
         d="m 202.45382,60.726226 0.004,-0.332285 1.06203,-1.914994 1.06203,-1.914993 0.58812,-0.142261 0.58812,-0.142258 19.84375,0.07288 19.84374,0.07288 v 2.248958 2.248958 l -21.49739,0.0677 -21.49739,0.0677 z m 47.41277,-1.985931 0.0764,-2.315104 16.56857,-0.06812 16.56857,-0.06812 0.31782,0.38295 0.31782,0.38295 0.15128,2.000274 0.15128,2.000276 H 266.90421 249.7901 Z"
         id="path20995" />
      <path
         style="fill:#f8b249;stroke-width:0.264583"
         d="m 199.14303,110.94259 -1.05833,-0.38834 -0.9705,-1.03573 -0.97051,-1.03572 -0.28479,-1.02568 -0.28479,-1.02568 -10e-4,-0.55583 -0.001,-0.55583 0.29786,-0.85444 0.29785,-0.85444 0.95892,0.93433 0.95891,0.93433 0.98369,0.40979 0.98369,0.4098 0.7361,-0.002 0.7361,-0.002 1.00937,-0.28029 1.00937,-0.28029 1.0459,-1.04589 1.04589,-1.0459 0.28306,0.73235 0.28305,0.73235 -0.10999,1.3753 -0.10999,1.3753 -0.71061,1.02542 -0.71061,1.02542 -1.02677,0.57707 -1.02677,0.57708 -1.15241,0.1334 -1.1524,0.13341 -1.05834,-0.38834 z m 73.3226,-0.005 -1.02533,-0.36547 -0.88963,-0.86227 -0.88964,-0.86227 -0.4361,-1.14192 -0.43611,-1.14193 0.1662,-1.21254 0.16619,-1.21253 0.16182,-0.26183 0.16183,-0.26183 1.00854,1.00253 1.00855,1.00253 0.88221,0.31945 0.8822,0.31944 0.79375,0.0187 0.79375,0.0186 0.96637,-0.26842 0.96637,-0.26841 1.08032,-1.08033 1.08033,-1.08032 0.26841,0.70598 0.26841,0.70598 -0.006,0.97496 -0.006,0.97497 -0.48182,1.0606 -0.48182,1.0606 -0.96035,0.8432 -0.96034,0.84319 -0.99942,0.27754 -0.99942,0.27754 -0.52917,-0.0101 -0.52916,-0.0101 -1.02533,-0.36548 z m -93.72191,-27.419404 0.17353,-1.085186 0.58789,-1.229918 0.58789,-1.229916 4.36563,-0.132291 4.36562,-0.132292 1.25607,-0.618572 1.25606,-0.618572 0.92675,-1.082699 0.92675,-1.082698 v -0.216959 -0.216958 h 0.26458 0.26459 v 1.800135 1.800132 l -0.69653,1.397744 -0.69652,1.397743 -1.22171,0.887664 -1.2217,0.887664 -1.10935,0.280082 -1.10935,0.280086 h -4.54686 -4.54687 z m 112.07743,-2.006333 1.7198,-0.07746 3.21658,-0.06915 3.21658,-0.06915 -0.12334,0.198438 -0.12334,0.198437 -4.81304,-0.05182 -4.81303,-0.05182 z m -2.38125,-0.21577 v -0.132292 h 0.1323 0.13229 v 0.132292 0.132292 h -0.13229 -0.1323 z m -1.05833,-0.529167 v -0.132291 h 0.13229 0.13229 v 0.132291 0.132292 h -0.13229 -0.13229 z m -0.95131,-0.966922 -0.18878,-0.305464 0.30546,0.188788 0.30546,0.188786 v 0.116678 0.116676 h -0.11667 -0.11668 z m -0.37161,-0.620578 v -0.132291 h 0.1323 0.13229 v 0.132291 0.132292 h -0.13229 -0.1323 z m -0.26458,-0.529166 v -0.132292 h 0.13229 0.13229 v 0.132292 0.132291 h -0.13229 -0.13229 z m 0,-4.730104 v -0.09989 l 0.46302,-0.363127 0.46302,-0.363125 -0.36312,0.463021 -0.36313,0.463021 h -0.0999 -0.0999 z M 286.8524,73.094 v -0.132292 h 0.1323 0.13229 V 73.094 73.226292 h -0.13229 -0.1323 z m 0.52917,-0.264583 v -0.132292 h 0.13229 0.13229 v 0.132292 0.132291 h -0.13229 -0.13229 z m 0.52917,-0.264584 v -0.132291 h 0.13229 0.13229 v 0.132291 0.132292 h -0.13229 -0.13229 z m 0.52916,-0.264583 v -0.132292 h 0.1323 0.13229 v 0.132292 0.132292 h -0.13229 -0.1323 z m 0.52917,-0.264583 v -0.132292 h 0.13229 0.13229 v 0.132292 0.132291 h -0.13229 -0.13229 z m 0.52917,-0.264584 v -0.132291 h 0.13229 0.13229 v 0.132291 0.132292 h -0.13229 -0.13229 z m 0.79375,-0.529166 v -0.132292 h 0.13229 0.13229 v 0.132292 0.132292 h -0.13229 -0.13229 z m 0.52916,-0.264583 v -0.132292 h 0.1323 0.13229 v 0.132292 0.132291 h -0.13229 -0.1323 z m 0.52917,-0.264584 v -0.132291 h 0.13229 0.13229 v 0.132291 0.132292 h -0.13229 -0.13229 z m 0.52917,-0.264583 v -0.132292 h 0.13229 0.13229 v 0.132292 0.132292 h -0.13229 -0.13229 z m 0.52916,-0.264583 v -0.132292 h 0.1323 0.13229 v 0.132292 0.132291 h -0.13229 -0.1323 z M 292.93782,69.919 v -0.132291 h 0.13229 0.13229 V 69.919 70.051292 h -0.13229 -0.13229 z m 0.52917,-0.264583 v -0.132292 h 0.13229 0.13229 v 0.132292 0.132292 h -0.13229 -0.13229 z m 0.52916,-0.264583 v -0.132292 h 0.1323 0.13229 v 0.132292 0.132291 h -0.13229 -0.1323 z m 0.52917,-0.264584 v -0.132291 h 0.13229 0.13229 v 0.132291 0.132292 h -0.13229 -0.13229 z m 0.52917,-0.264583 v -0.132292 h 0.13229 0.13229 v 0.132292 0.132292 h -0.13229 -0.13229 z m 0.52916,-0.264583 v -0.132292 h 0.1323 0.13229 v 0.132292 0.132291 h -0.13229 -0.1323 z m 0.52917,-0.264584 v -0.132291 h 0.13229 0.13229 v 0.132291 0.132292 h -0.13229 -0.13229 z m 0.52917,-0.264583 v -0.132292 h 0.13229 0.13229 v 0.132292 0.132292 h -0.13229 -0.13229 z m 0.79375,-0.529167 v -0.132291 h 0.13229 0.13229 v 0.132291 0.132292 h -0.13229 -0.13229 z m 0.61736,-0.308681 0.17639,-0.176387 0.17639,0.176387 0.17638,0.17639 h -0.35277 -0.35278 z M 208.29179,7.1189419 208.02921,6.6283156 207.84906,4.8699837 207.66892,3.1116519 h 4.1045 4.10451 l 0.8319,-0.1663811 0.83191,-0.1663811 1.91315,-1.7230714 1.91314,-1.72307136 1.5875,-0.75617194 1.5875,-0.756172 0.48042,-2.088e-4 0.48041,-2.087e-4 0.50527,-0.2704116 0.50527,-0.2704118 0.1775,0.7072299 0.17751,0.7072298 -0.30329,0.83873764 -0.3033,0.83873733 V 1.0475191 1.7239417 l -0.33072,0.266428 -0.33073,0.266428 -0.92605,0.1954432 -0.92604,0.1954435 -1.28195,0.6460762 -1.28195,0.6460762 -1.69523,1.5770661 -1.69523,1.5770661 -0.67806,0.2577996 -0.67807,0.2577997 h -3.94221 -3.94222 z"
         id="path20993" />
      <path
         style="fill:#ffeeaa;stroke-width:0.264583"
         d="m 182.85046,105.5054 -2.53425,-0.13229 -0.97148,-0.74107 -0.97149,-0.74107 v -0.23222 -0.23222 l -0.44928,-0.44929 -0.44928,-0.44928 -0.1044,-2.41388 -0.10439,-2.413891 0.78258,1.209691 0.78257,1.20969 0.97003,0.46031 0.97003,0.46031 2.84507,-0.0825 2.84508,-0.0825 -0.31267,1.32292 -0.31268,1.32291 -0.2256,1.05834 -0.2256,1.05833 z m 33.14234,-1.73416 -0.29018,-1.86645 -0.17216,-0.44865 -0.17217,-0.44866 h 22.15188 22.15187 l -0.16378,0.59531 -0.16378,0.59532 -0.2918,1.71979 -0.29181,1.71979 h -21.23395 -21.23396 z m 73.2688,0.14666 -0.29127,-1.71979 -0.16378,-0.59532 -0.16378,-0.59531 h 3.61587 3.61588 l 0.71509,-0.36979 0.71508,-0.36978 0.50341,-0.556258 0.5034,-0.556255 h 0.25343 0.25344 l -0.10418,1.843623 -0.10417,1.84363 -0.53734,0.71971 -0.53735,0.71971 -0.73017,0.54552 -0.73018,0.54552 -3.26105,0.13229 -3.26106,0.13229 z m -74.11128,-3.30729 v -0.1323 h 0.1323 0.13229 v 0.1323 0.13229 h -0.13229 -0.1323 z m 73.28958,0 v -0.1323 h 0.1323 0.13229 v 0.1323 0.13229 h -0.13229 -0.1323 z m -28.57499,-0.52917 v -0.132293 h 0.13229 0.13229 v 0.132293 0.13229 h -0.13229 -0.13229 z m 28.31041,0 v -0.132293 h 0.13229 0.13229 v 0.132293 0.13229 h -0.13229 -0.13229 z M 186.83991,99.552272 V 99.41998 h 0.13229 0.13229 v 0.132292 0.132292 h -0.13229 -0.13229 z m 73.28958,0 V 99.41998 h 0.13229 0.13229 v 0.132292 0.132292 h -0.13229 -0.13229 z m -73.025,-0.529167 v -0.132291 h 0.13229 0.1323 v 0.132291 0.132292 h -0.1323 -0.13229 z m 0.26459,-0.529166 v -0.132292 h 0.13229 0.13229 v 0.132292 0.132291 h -0.13229 -0.13229 z m 73.28958,0 v -0.132292 h 0.13229 0.13229 v 0.132292 0.132291 h -0.13229 -0.13229 z m 26.72291,0 v -0.132292 h 0.13229 0.13229 v 0.132292 0.132291 h -0.13229 -0.13229 z m -73.55416,-0.529167 v -0.132291 h 0.13229 0.13229 v 0.132291 0.132292 h -0.13229 -0.13229 z m 73.28958,0 v -0.132291 h 0.13229 0.13229 v 0.132291 0.132292 h -0.13229 -0.13229 z m -73.81875,-0.79375 v -0.132291 h 0.13229 0.13229 v 0.132291 0.132292 h -0.13229 -0.13229 z m 48.15417,0 v -0.132291 h 0.13229 0.13229 v 0.132291 0.132292 h -0.13229 -0.13229 z m 25.13541,0 v -0.132291 h 0.13229 0.13229 v 0.132291 0.132292 h -0.13229 -0.13229 z m -98.16041,-0.264583 v -0.132292 h 0.13229 0.13229 v 0.132292 0.132292 h -0.13229 -0.13229 z m 24.07708,-0.79375 v -0.132292 h 0.13229 0.13229 v 0.132292 0.132292 h -0.13229 -0.13229 z m 72.99125,-0.330729 -0.36313,-0.463021 0.46302,0.363125 0.46302,0.363127 v 0.09989 0.0999 h -0.0999 -0.0999 z m -22.19125,-0.727604 0.89755,-0.926042 h 0.13229 0.1323 l -0.89756,0.926042 -0.89755,0.926041 h -0.13229 -0.13229 z m -73.28958,0 0.62141,-0.661459 h 0.13229 0.13229 l -0.62141,0.661459 -0.62141,0.661458 h -0.13229 -0.13229 z m 94.0341,-0.702339 -0.18878,-0.305464 0.30546,0.188788 0.30546,0.188785 v 0.116679 0.116676 h -0.11667 -0.11668 z m -73.55416,-0.264584 -0.18879,-0.305464 0.30547,0.188788 0.30546,0.188786 v 0.116678 0.116676 h -0.11667 -0.11668 z m -18.62786,-0.620577 v -0.132292 h 0.13229 0.1323 v 0.132292 0.132291 h -0.1323 -0.13229 z m 73.28958,0 v -0.132292 h 0.13229 0.1323 v 0.132292 0.132291 h -0.1323 -0.13229 z m 17.72708,0 v -0.132292 h 0.1323 0.13229 v 0.132292 0.132291 h -0.13229 -0.1323 z m -90.22291,-0.529167 v -0.132292 h 0.13229 0.1323 v 0.132292 0.132292 h -0.1323 -0.13229 z m 73.28958,0 v -0.132292 h 0.13229 0.1323 v 0.132292 0.132292 h -0.1323 -0.13229 z m 16.13958,0 v -0.132292 h 0.1323 0.13229 v 0.132292 0.132292 h -0.13229 -0.1323 z m -88.89999,-0.264583 v -0.132292 h 0.13229 0.13229 v 0.132292 0.132291 h -0.13229 -0.13229 z m 1.5875,-0.79375 v -0.132292 h 0.13229 0.13229 v 0.132292 0.132291 h -0.13229 -0.13229 z m 0.52917,-0.264583 v -0.132292 h 0.13229 0.13229 v 0.132292 0.132291 h -0.13229 -0.13229 z m 10.84791,0 v -0.132292 h 0.13229 0.1323 v 0.132292 0.132291 h -0.1323 -0.13229 z m 62.44167,0 v -0.132292 h 0.13229 0.13229 v 0.132292 0.132291 h -0.13229 -0.13229 z m 10.84791,0 v -0.132292 h 0.13229 0.13229 v 0.132292 0.132291 h -0.13229 -0.13229 z m -83.34374,-0.264584 v -0.132291 h 0.13229 0.13229 v 0.132291 0.132292 h -0.13229 -0.13229 z m 9.26041,0 v -0.132291 h 0.13229 0.1323 v 0.132291 0.132292 h -0.1323 -0.13229 z m 64.02917,0 v -0.132291 h 0.13229 0.13229 v 0.132291 0.132292 h -0.13229 -0.13229 z m 9.26041,0 v -0.132291 h 0.13229 0.13229 v 0.132291 0.132292 h -0.13229 -0.13229 z m -81.49166,-0.264583 v -0.132292 h 0.13229 0.13229 v 0.132292 0.132292 h -0.13229 -0.13229 z m 7.40833,0 v -0.132292 h 0.13229 0.1323 v 0.132292 0.132292 h -0.1323 -0.13229 z m 65.88125,0 v -0.132292 h 0.13229 0.13229 v 0.132292 0.132292 h -0.13229 -0.13229 z m -72.14305,-0.308682 0.17639,-0.176387 0.17638,0.176387 0.17639,0.17639 h -0.35277 -0.35278 z m 4.7625,0 0.17639,-0.176387 0.17638,0.176387 0.17639,0.17639 h -0.35277 -0.35278 z m 68.52708,0 0.17639,-0.176387 0.17639,0.176387 0.17638,0.17639 h -0.35277 -0.35278 z m 4.7625,0 0.17639,-0.176387 0.17638,0.176387 0.17639,0.17639 h -0.35277 -0.35278 z m -44.45,-15.345832 0.17639,-0.176387 0.17639,0.176387 0.17638,0.17639 h -0.35277 -0.35278 z m 9.78958,0 0.17639,-0.176387 0.17639,0.176387 0.17639,0.17639 h -0.35278 -0.35278 z m 1.36702,-0.61736 0.16352,-0.264584 h 0.13229 0.13229 l -0.16352,0.264584 -0.16352,0.264583 h -0.13229 -0.1323 z m -13.09688,-0.661459 v -0.132291 h 0.13229 0.13229 v 0.132291 0.132292 h -0.13229 -0.13229 z m 13.49375,0 v -0.132291 h 0.13229 0.13229 v 0.132291 0.132292 h -0.13229 -0.13229 z m 0,-1.5875 v -0.132291 h 0.13229 0.13229 v 0.132291 0.132292 h -0.13229 -0.13229 z M 231.02532,71.50644 v -0.132291 h 0.1323 0.13229 v 0.132291 0.132292 h -0.13229 -0.1323 z m 3.24115,-0.329538 2.57969,-0.0865 2.57968,0.0865 2.57969,0.0865 h -5.15937 -5.15938 z"
         id="path20991" />
      <path
         style="fill:#9b9596;stroke-width:0.264583"
         d="m 197.15866,120.69707 -1.45521,-0.38392 -1.71979,-0.83267 -1.71979,-0.83266 -2.01169,-2.00715 -2.01169,-2.00715 -0.94116,-1.98437 -0.94116,-1.98438 -0.27114,-1.45521 -0.27115,-1.4552 -0.13469,-1.5875 -0.1347,-1.5875 0.22389,1.05833 0.22388,1.05833 0.31939,1.94525 0.31939,1.94524 1.06727,2.13235 1.06728,2.13234 1.61585,1.61202 1.61584,1.61201 1.87937,0.98513 1.87936,0.98513 1.69251,0.39896 1.69251,0.39896 h 1.7198 1.71979 l 1.70579,-0.40206 1.7058,-0.40206 1.64069,-0.80771 1.64069,-0.80771 1.52804,-1.36191 1.52803,-1.36192 1.00376,-1.55301 1.00376,-1.55301 0.52462,-1.40217 0.52462,-1.40218 0.30654,-2.30348 0.30653,-2.30347 -0.31031,-1.6246 -0.31031,-1.6246 -1.15073,-2.388236 -1.15072,-2.388237 -1.39409,-1.416256 -1.3941,-1.416257 -1.38632,-0.886817 -1.38632,-0.886817 -2.02433,-0.679545 -2.02433,-0.679545 -2.56623,0.003 -2.56623,0.003 -1.71388,0.532159 -1.71389,0.532159 -1.68454,0.999191 -1.68454,0.999194 -1.53167,1.636667 -1.53166,1.636668 -0.87381,1.774941 -0.8738,1.774941 -0.45076,1.74776 -0.45076,1.74778 -0.0233,-0.53973 -0.0233,-0.53972 0.39398,-1.51263 0.39399,-1.51262 0.83263,-1.651813 0.83264,-1.65182 2.01452,-1.994974 2.01453,-1.994974 1.73688,-0.841729 1.73689,-0.841727 1.83499,-0.432636 1.83499,-0.432634 2.38125,0.143203 2.38125,0.143203 1.46793,0.513818 1.46794,0.513816 1.06452,0.543076 1.06451,0.543076 1.48176,1.207029 1.48175,1.207029 1.34199,2.006438 1.34199,2.006439 0.59523,1.89848 0.59523,1.89849 -0.0301,2.64583 -0.0301,2.64584 -0.68948,2.11666 -0.68947,2.11667 -0.9813,1.45521 -0.98131,1.4552 -1.40943,1.35793 -1.40944,1.35792 -1.81009,0.95118 -1.8101,0.95118 -1.69251,0.39896 -1.69251,0.39896 -2.11667,-0.0135 -2.11666,-0.0135 -1.45521,-0.38393 z m 73.28958,0.0161 -1.45521,-0.40001 -1.71979,-0.83267 -1.71979,-0.83266 -2.01453,-2.00715 -2.01452,-2.00715 -0.83694,-1.66035 -0.83694,-1.66034 -0.37168,-1.51466 -0.37169,-1.51465 -0.13009,-1.98437 -0.13009,-1.98438 0.25723,1.71979 0.25722,1.71979 0.38445,1.7198 0.38444,1.71979 0.85949,1.71778 0.85948,1.71779 1.71979,1.734 1.71979,1.73401 1.87937,0.97398 1.87937,0.97399 1.6925,0.39896 1.69251,0.39896 h 1.7198 1.71979 l 1.70579,-0.40206 1.7058,-0.40206 1.73379,-0.84759 1.73378,-0.84758 1.88721,-1.87762 1.88721,-1.87762 0.94077,-1.96206 0.94078,-1.96205 0.28215,-1.71979 0.28216,-1.71979 0.25052,-1.45521 0.25052,-1.45521 -0.14663,2.09907 -0.14664,2.09906 -0.37727,1.44842 -0.37726,1.44841 -0.94432,1.79705 -0.94432,1.79704 -1.5289,1.53464 -1.52889,1.53464 -1.43983,0.86298 -1.43982,0.86299 -1.56955,0.56408 -1.56955,0.56409 -2.77813,0.093 -2.77812,0.093 z m -68.92054,-9.46753 1.32633,-0.34454 0.86249,-0.50948 0.86249,-0.50949 0.70626,-1.01913 0.70626,-1.01913 0.10232,-1.49996 0.10232,-1.49996 -0.63647,-1.19063 -0.63646,-1.19062 -1.0743,-0.75674 -1.07429,-0.75674 -1.18912,-0.13403 -1.18912,-0.13403 -0.98011,0.32346 -0.98011,0.32347 -0.94488,0.82962 -0.94489,0.82962 -0.48182,1.0606 -0.48182,1.0606 -0.004,0.66146 -0.004,0.66146 0.28479,1.02568 0.2848,1.02568 0.9705,1.03572 0.9705,1.03573 1.05834,0.37438 1.05833,0.37437 -0.54995,0.0116 -0.54995,0.0116 -1.1807,-0.78206 -1.18069,-0.78206 -0.57336,-1.02015 -0.57335,-1.02014 -0.17313,-1.0827 -0.17314,-1.0827 0.44611,-1.3431 0.44611,-1.3431 1.20116,-1.05731 1.20116,-1.0573 0.91088,-0.17088 0.91087,-0.17088 1.32666,0.12747 1.32665,0.12748 1.08232,0.76465 1.08231,0.76466 0.55273,1.05833 0.55273,1.05833 v 1.76315 1.76315 l -0.8055,1.14727 -0.8055,1.14727 -1.05414,0.58281 -1.05415,0.58282 -1.18306,0.14446 -1.18307,0.14446 1.32633,-0.34453 z m 71.0068,-0.006 -0.95645,-0.35575 -0.81316,-0.57902 -0.81314,-0.57901 -0.71352,-1.45838 -0.71352,-1.45838 0.15674,-1.32342 0.15674,-1.32343 0.58712,-1.04464 0.58712,-1.04463 1.05518,-0.73124 1.05518,-0.73124 h 2.02632 2.02632 l 1.07263,0.70984 1.07264,0.70983 0.69398,1.39264 0.69397,1.39263 -0.006,1.07253 -0.006,1.07253 -0.5379,1.18587 -0.53791,1.18586 -0.44847,0.49594 -0.44847,0.49593 -0.99134,0.50596 -0.99134,0.50595 -1.12533,0.1297 -1.12532,0.12969 -0.95645,-0.35576 z m 3.02569,-0.19718 1.01092,-0.28072 1.02415,-0.92525 1.02414,-0.92526 0.4471,-1.1707 0.44709,-1.1707 -0.12865,-1.14137 -0.12865,-1.14137 -0.73519,-1.11095 -0.73519,-1.11094 -0.95685,-0.59506 -0.95686,-0.59505 h -1.73918 -1.73918 l -0.97635,0.66146 -0.97636,0.66146 -0.66331,0.99468 -0.6633,0.99467 -0.16285,1.1881 -0.16285,1.1881 0.43611,1.14193 0.4361,1.14193 0.88964,0.86227 0.88963,0.86226 1.02533,0.36548 1.02532,0.36547 0.52916,0.0101 0.52917,0.0101 1.01091,-0.28072 z m -16.46704,-7.25695 -0.0157,-0.52917 0.35273,-1.32292 0.35273,-1.32291 0.76126,-1.587505 0.76125,-1.587499 2.12402,-2.137405 2.12402,-2.137407 1.66472,-0.823574 1.66472,-0.823571 2.01718,-0.448781 2.01718,-0.448778 2.27122,0.154958 2.27123,0.154956 1.64644,0.564679 1.64645,0.564679 1.59187,1.028877 1.59187,1.028877 1.21323,1.26437 1.21323,1.26437 0.87867,1.455208 0.87867,1.455208 0.42136,1.256838 0.42135,1.25684 0.14385,1.12441 0.14385,1.12441 -0.62033,-1.98437 -0.62032,-1.98438 -0.71523,-1.388552 -0.71524,-1.388557 -1.71783,-1.820995 -1.71784,-1.820997 -1.78369,-0.932143 -1.78369,-0.932143 -1.45521,-0.431713 -1.45521,-0.431715 -2.51354,0.0016 -2.51354,0.0016 -1.45521,0.434414 -1.45521,0.434414 -1.5875,0.800843 -1.5875,0.800844 -1.87402,1.881388 -1.87402,1.881386 -0.87669,1.790845 -0.8767,1.790851 -0.47158,1.64874 -0.47158,1.64874 -0.0157,-0.52917 z m 40.03978,-8.430151 -0.13828,-0.360354 0.0804,-1.535748 0.0804,-1.535747 1.65334,-0.336177 1.65334,-0.336177 1.33338,-0.725717 1.33338,-0.725718 1.07188,-1.162849 1.07188,-1.162852 0.7039,-1.501547 0.7039,-1.50155 v -34.26354 -34.26354 l -0.62019,-1.975051 -0.62019,-1.975049 -0.74033,-1.464533 -0.74033,-1.4645334 -1.20687,-1.6376816 -1.20687,-1.6376816 -1.75167,-1.444857 -1.75166,-1.4448569 -1.89865,-0.954264 -1.89866,-0.95426364 -2.09284,-0.52725979 -2.09285,-0.52726005 -32.30298,-0.0040516 -32.30299,-0.0040516 -0.31513,-0.20036101 -0.31513,-0.20036102 -0.0817,-1.71381649 -0.0817,-1.7138165 h 33.3375 33.3375 l 2.11666,0.6089321 2.11667,0.6089325 2.11667,1.0301689 2.11666,1.03016919 1.85209,1.4220983 1.85208,1.42209851 1.65693,1.9658832 1.65692,1.9658834 1.17406,2.2652664 1.17406,2.2652667 0.65765,2.269423 0.65766,2.269423 -0.16103,0.615768 -0.16103,0.615764 -0.37167,-1.839044 -0.37168,-1.839044 -0.78813,-2.043675 -0.78812,-2.0436752 -1.28788,-1.9291947 -1.28789,-1.9291948 -1.14451,-1.2327984 -1.14451,-1.2327982 -1.58112,-1.2548946 -1.58112,-1.25489461 -2.38763,-1.15003419 -2.38763,-1.1500342 -2.24896,-0.5956059 -2.24895,-0.5956061 h -32.67604 -32.67604 l -0.0794,1.5213541 -0.0794,1.5213541 32.22622,0.004593 32.22622,0.004593 1.76898,0.37491377 1.76898,0.37491351 1.61208,0.65114669 1.61207,0.65114693 1.50248,0.8875744 1.50248,0.8875747 2.02025,1.9843749 2.02026,1.9843749 1.08457,1.8520832 1.08458,1.8520837 0.69092,2.073269 0.69092,2.07327 0.2484,2.160064 0.24839,2.160063 1e-5,31.220832 10e-6,31.220832 -0.27519,1.696045 -0.27519,1.696048 -0.69381,1.416949 -0.69382,1.41695 -1.41004,1.333563 -1.41005,1.333564 -1.14875,0.508148 -1.14875,0.508145 -1.365,0.292741 -1.36499,0.292737 v 1.469713 1.46971 l 1.44975,-0.170389 1.44974,-0.170389 1.454,-0.54401 1.45399,-0.544009 1.57395,-1.158677 1.57395,-1.158676 1.05996,-1.404499 1.05995,-1.404498 0.54838,-1.280123 0.54838,-1.280123 0.17454,-1.091509 0.17454,-1.091507 0.18219,0.519372 0.18218,0.519372 -0.25074,0.926219 -0.25075,0.926216 -0.82825,1.5875 -0.82825,1.5875 -1.60242,1.62098 -1.60243,1.620983 -1.64194,0.828852 -1.64195,0.82885 -1.65636,0.390527 -1.65636,0.390528 -0.60362,0.0039 -0.60362,0.0039 -0.13828,-0.360355 z m 13.43564,-12.207353 0.01,-0.79375 0.12197,0.468056 0.12197,0.468056 -0.13177,0.325694 -0.13178,0.325694 0.01,-0.79375 z m -23.77589,-1.631598 0.17639,-0.176387 0.17639,0.176387 0.17639,0.17639 h -0.35278 -0.35278 z m -1.61812,-0.815797 -0.74452,-0.727605 0.54191,0.426887 0.54191,0.426887 0.52917,0.292671 0.52917,0.292672 -0.32656,0.008 -0.32655,0.008 -0.74453,-0.727604 z m -1.25908,-1.406666 -0.1744,-0.282186 0.1261,-0.1261 0.1261,-0.1261 0.15668,0.408286 0.15667,0.408286 h -0.10837 -0.10838 z m -0.29208,-3.025105 -0.002,-2.38125 0.10089,1.116497 0.10089,1.116494 -0.0994,1.264756 -0.0994,1.264753 -0.002,-2.38125 z m -53.86465,-0.840494 -0.72178,-0.119573 -0.53499,-0.680127 -0.53499,-0.680128 v -0.637802 -0.637804 l 0.64943,-0.649431 0.64943,-0.649432 h 5.68137 5.68136 l 0.54837,0.69714 0.54837,0.69714 v 0.61102 0.611024 l -0.63808,0.74236 -0.63809,0.742357 -4.98431,0.03642 -4.98431,0.03642 z m 10.84937,-0.762008 0.58804,-0.411879 v -0.896036 -0.896035 l -0.58804,-0.411879 -0.58804,-0.411877 h -5.2328 -5.23279 l -0.52917,0.529166 -0.52916,0.529167 v 0.778748 0.778746 l 0.58804,0.411879 0.58803,0.411877 h 5.17393 5.17392 z m 43.31824,-1.175623 0.16352,-0.264583 h 0.1323 0.13229 l -0.16352,0.264583 -0.16352,0.264583 h -0.1323 -0.13229 z m 0.92604,-0.661458 v -0.132292 h 0.1323 0.13229 v 0.132292 0.132291 h -0.13229 -0.1323 z m 0.52917,-0.264584 v -0.132291 h 0.13229 0.13229 v 0.132291 0.132292 h -0.13229 -0.13229 z m 0.52917,-0.264583 v -0.132292 h 0.13229 0.13229 v 0.132292 0.132292 h -0.13229 -0.13229 z m 0.52916,-0.264583 v -0.132292 h 0.1323 0.13229 v 0.132292 0.132291 h -0.13229 -0.1323 z m 0.52917,-0.264584 v -0.132291 h 0.13229 0.13229 v 0.132291 0.132292 h -0.13229 -0.13229 z m 0.52917,-0.264583 v -0.132291 h 0.13229 0.13229 v 0.132291 0.132292 h -0.13229 -0.13229 z m 0.52916,-0.264583 v -0.132292 h 0.1323 0.13229 v 0.132292 0.132292 h -0.13229 -0.1323 z m 0.52917,-0.264583 v -0.132292 h 0.13229 0.13229 v 0.132292 0.132291 h -0.13229 -0.13229 z m 0.52917,-0.264584 v -0.132291 h 0.13229 0.13229 v 0.132291 0.132292 h -0.13229 -0.13229 z m 0.52916,-0.264583 v -0.132292 h 0.1323 0.13229 v 0.132292 0.132292 h -0.13229 -0.1323 z m 0.52917,-0.264583 v -0.132292 h 0.13229 0.13229 v 0.132292 0.132291 h -0.13229 -0.13229 z m 0.79375,-0.529167 v -0.132292 h 0.13229 0.13229 v 0.132292 0.132292 h -0.13229 -0.13229 z m 0.52917,-0.264583 v -0.132292 h 0.13229 0.13229 v 0.132292 0.132291 h -0.13229 -0.13229 z m 0.52916,-0.264584 v -0.132291 h 0.1323 0.13229 v 0.132291 0.132292 h -0.13229 -0.1323 z m 0.52917,-0.264583 v -0.132292 h 0.13229 0.13229 v 0.132292 0.132292 h -0.13229 -0.13229 z m 0.52917,-0.264583 v -0.132292 h 0.13229 0.13229 v 0.132292 0.132291 h -0.13229 -0.13229 z m 0.52916,-0.264584 v -0.132291 h 0.1323 0.13229 v 0.132291 0.132292 h -0.13229 -0.1323 z m 0.52917,-0.264583 v -0.132292 h 0.13229 0.13229 v 0.132292 0.132292 h -0.13229 -0.13229 z m 0.52917,-0.264583 v -0.132292 h 0.13229 0.13229 v 0.132292 0.132291 h -0.13229 -0.13229 z m 0.52916,-0.264584 v -0.132291 h 0.1323 0.13229 v 0.132291 0.132292 h -0.13229 -0.1323 z m 0.52917,-0.264583 v -0.132292 h 0.13229 0.13229 v 0.132292 0.132292 h -0.13229 -0.13229 z m 0.52917,-0.264583 v -0.132292 h 0.13229 0.13229 v 0.132292 0.132291 h -0.13229 -0.13229 z m 14.34888,-49.34479 v -0.926041 l 0.121,0.463021 0.121,0.46302 -0.121,0.463021 -0.121,0.463021 z M 197.42324,4.6991518 196.89408,4.1699851 V 3.2849508 2.3999161 l 0.48385,-0.4378819 0.48385,-0.4378823 h 4.94011 4.9401 v 1.8520833 1.8520832 h -4.89479 -4.89479 z m 9.92188,-1.3229166 V 1.9210269 l -4.23334,-0.075637 -4.23333,-0.075637 -0.58767,0.1449067 -0.58768,0.144907 -0.29472,0.550686 -0.29472,0.5506863 0.16271,0.6482688 0.1627,0.6482691 0.5874,0.2396019 0.5874,0.2396019 4.36562,-0.052619 4.36563,-0.052619 z m -9.12813,-9.1803991 -0.39687,-0.149067 -0.46302,-0.403357 -0.46302,-0.4033573 v -0.8747275 -0.8747278 l 0.57905,-0.5394735 0.57906,-0.5394735 h 4.85649 4.85649 l -0.0777,1.9182291 -0.0777,1.918229 -4.49792,0.048396 -4.49791,0.048396 z m 9.26042,-1.8057774 v -1.4611768 l -4.81877,0.072114 -4.81878,0.072115 -0.391,0.6971159 -0.39101,0.6971157 0.45338,0.6919467 0.45338,0.6919465 h 4.7564 4.7564 z"
         id="path20989" />
      <path
         style="fill:#837c85;fill-opacity:1;stroke-width:0.264583"
         d="m 199.73835,120.6575 1.12448,-0.10128 1.12447,0.10128 1.12448,0.10128 h -2.24895 -2.24896 z m 73.28958,0 1.12448,-0.10128 1.12447,0.10128 1.12448,0.10128 h -2.24895 -2.24896 z m -75.40625,-0.24608 0.33073,-0.13346 0.33073,0.13346 0.33073,0.13345 h -0.66146 -0.66146 z m 6.10195,-0.006 0.34727,-0.13896 0.15985,0.15985 0.15985,0.15985 -0.50711,-0.0209 -0.50712,-0.0209 0.34726,-0.13897 z m 67.18763,0.006 0.33073,-0.13346 0.33073,0.13346 0.33073,0.13345 h -0.66146 -0.66146 z m 6.10195,-0.006 0.34727,-0.13896 0.15985,0.15985 0.15985,0.15985 -0.50711,-0.0209 -0.50712,-0.0209 0.34726,-0.13897 z m -81.30976,-0.47117 -0.79375,-0.36345 0.26458,-0.001 0.26459,-0.001 0.92604,0.35661 0.92604,0.35662 -0.39687,0.008 -0.39688,0.008 -0.79375,-0.36345 z m 9.07852,0.20658 0.34726,-0.13896 0.15985,0.15985 0.15986,0.15985 -0.50712,-0.0209 -0.50712,-0.0209 0.34727,-0.13897 z m 65.08749,0 0.34727,-0.13896 0.15985,0.15985 0.15985,0.15985 -0.50711,-0.0209 -0.50712,-0.0209 0.34726,-0.13897 z m 8.20209,0 0.34726,-0.13896 0.15985,0.15985 0.15986,0.15985 -0.50712,-0.0209 -0.50712,-0.0209 0.34727,-0.13897 z m -72.35803,-0.26023 0.17639,-0.17639 0.17639,0.17639 0.17639,0.17639 h -0.35278 -0.35278 z m 62.88264,-0.0882 -0.39688,-0.25648 h 0.26458 0.26459 l 0.39687,0.25648 0.39688,0.25648 h -0.26459 -0.26458 z m 10.58333,0 0.39687,-0.25648 h 0.26459 0.26458 l -0.39688,0.25648 -0.39687,0.25648 h -0.26458 -0.26459 z m -72.76041,-0.1323 v -0.13229 h 0.13229 0.13229 v 0.13229 0.1323 h -0.13229 -0.13229 z m -11.90625,-0.26458 v -0.13229 h 0.13229 0.13229 v 0.13229 0.13229 h -0.13229 -0.13229 z m 12.45746,0.0358 0.11024,-0.0965 0.66146,-0.31502 0.66146,-0.31502 -0.51359,0.41147 -0.51359,0.41147 h -0.25811 -0.25811 z m 60.83212,-0.0358 v -0.13229 h 0.13229 0.13229 v 0.13229 0.13229 h -0.13229 -0.13229 z m 12.45746,0.0358 0.11024,-0.0965 0.66146,-0.31502 0.66146,-0.31502 -0.51359,0.41147 -0.51359,0.41147 h -0.25811 -0.25811 z m -86.27621,-0.30042 v -0.13229 h 0.13229 0.13229 v 0.13229 0.13229 h -0.13229 -0.13229 z m 73.28958,0 v -0.13229 h 0.13229 0.13229 v 0.13229 0.13229 h -0.13229 -0.13229 z m -75.32278,-1.28235 -1.56224,-1.15006 -0.89574,-1.16505 -0.89573,-1.16504 1.43668,1.48849 1.43669,1.48849 1.12448,0.72948 1.12448,0.72948 v 0.0971 0.0971 h -0.10319 -0.10318 z m 74.38116,0.73858 -0.51359,-0.41147 0.59531,0.28849 0.59532,0.28849 v 0.12298 0.12299 h -0.0817 -0.0817 z m -57.79588,0.0543 v -0.11117 l 0.69404,-0.45475 0.69403,-0.45475 -0.1796,0.29061 -0.17961,0.2906 -0.51443,0.27532 -0.51443,0.27531 z m 73.95104,-0.4658 0.79375,-0.58756 1.45557,-1.49327 1.45556,-1.49327 0.85249,-1.57179 0.85249,-1.5718 0.005,0.26458 0.005,0.26459 -0.83381,1.45521 -0.8338,1.4552 -1.61111,1.61014 -1.61111,1.61013 -0.66145,0.3227 -0.66146,0.32271 0.79375,-0.58757 z m -18.7664,-1.62446 -1.65179,-1.65365 -0.3227,-0.66145 -0.3227,-0.66146 0.58757,0.79375 0.58756,0.79375 1.5624,1.52135 1.56241,1.52136 h -0.17549 -0.17548 z m -52.28654,-0.33073 1.42774,-1.5875 0.26115,-0.26458 0.26115,-0.26459 -0.54983,0.79375 -0.54982,0.79375 -1.13906,1.05834 -1.13907,1.05833 z m -13.74601,-0.26276 -1.7198,-0.38842 -1.96484,-0.96867 -1.96484,-0.96867 -1.76344,-1.76344 -1.76344,-1.76344 -1.10036,-2.19846 -1.10037,-2.19845 -0.0323,1.2874 -0.0323,1.28741 -0.23471,-1.5875 -0.23471,-1.5875 0.41523,-1.85208 0.41524,-1.85208 0.92095,-1.920186 0.92095,-1.920182 1.54573,-1.651693 1.54572,-1.651693 1.68454,-0.999194 1.68454,-0.999191 1.71389,-0.532159 1.71388,-0.532159 2.56623,-0.003 2.56623,-0.003 2.02433,0.679545 2.02433,0.679545 1.38632,0.886817 1.38632,0.886817 1.3941,1.416257 1.39409,1.416256 1.14546,2.388237 1.14546,2.388233 0.28687,1.40209 0.28686,1.40208 -0.0186,0.97917 -0.0186,0.97916 -0.19262,-0.48959 -0.19262,-0.48958 -1.02238,2.07708 -1.02238,2.07709 -1.87526,1.88139 -1.87525,1.88138 -1.69705,0.85631 -1.69704,0.85631 -1.21337,0.37223 -1.21337,0.37223 -2.24896,0.12791 -2.24896,0.1279 -1.71979,-0.38842 z m 5.93381,-5.23984 1.05415,-0.58282 0.8055,-1.14727 0.80549,-1.14727 v -1.76314 -1.76315 l -0.55273,-1.05833 -0.55273,-1.05833 -1.08231,-0.76466 -1.08231,-0.76465 -1.32665,-0.12748 -1.32666,-0.12747 -0.91088,0.17088 -0.91087,0.17088 -1.20116,1.0573 -1.20116,1.05731 -0.44611,1.3431 -0.44611,1.3431 0.17313,1.0827 0.17313,1.08269 0.56474,1.00483 0.56475,1.00482 1.0064,0.69743 1.0064,0.69744 0.86515,0.21652 0.86515,0.21652 1.05078,-0.12907 1.05077,-0.12906 z m 67.35577,5.22212 -1.7198,-0.3707 -1.85208,-0.91554 -1.85208,-0.91555 -1.49276,-1.33422 -1.49275,-1.33423 -0.99548,-1.49975 -0.99548,-1.49975 -0.47595,-1.21655 -0.47596,-1.21656 -0.0458,1.45521 -0.0458,1.45521 -0.24181,-1.85209 -0.24181,-1.85208 0.42426,-1.71979 0.42426,-1.71979 0.94902,-1.98438 0.94901,-1.984374 1.87857,-1.881386 1.87856,-1.881389 1.5875,-0.800843 1.5875,-0.800844 1.45521,-0.434414 1.4552,-0.434414 2.51355,-0.0016 2.51354,-0.0016 1.45521,0.431716 1.4552,0.431712 1.7837,0.932143 1.78369,0.932143 1.71923,1.822474 1.71923,1.822471 0.79379,1.572503 0.7938,1.572502 0.54391,1.98258 0.54392,1.98259 -0.24243,1.93303 -0.24243,1.93303 -0.0385,-1.32292 -0.0386,-1.32291 -0.94963,1.95197 -0.94964,1.95198 -1.89022,1.91019 -1.89022,1.91018 -1.98438,0.96992 -1.98437,0.96991 -1.85209,0.38885 -1.85208,0.38885 -1.32292,-0.0164 -1.32291,-0.0164 -1.71979,-0.3707 z m 5.75553,-5.11038 0.99134,-0.50595 0.44847,-0.49594 0.44848,-0.49593 0.5379,-1.18587 0.5379,-1.18586 0.006,-1.07254 0.006,-1.07252 -0.69398,-1.39264 -0.69398,-1.39263 -1.07264,-0.70984 -1.07263,-0.70983 h -2.02632 -2.02632 l -1.05518,0.73123 -1.05518,0.73125 -0.58712,1.04463 -0.58712,1.04464 -0.15674,1.32342 -0.15674,1.32343 0.71352,1.45838 0.71352,1.45837 0.81315,0.57902 0.81315,0.57901 0.95645,0.35576 0.95645,0.35576 1.12532,-0.1297 1.12533,-0.12969 0.99134,-0.50596 z m -88.57011,2.87732 -0.28321,-0.52917 h 0.1323 0.13229 l 0.2832,0.52917 0.2832,0.52917 h -0.13229 -0.13229 z m 25.85124,-1.18323 0.71007,-1.44782 0.0986,0.0986 0.0986,0.0986 -0.6837,1.34923 -0.68371,1.34922 h -0.12496 -0.12496 z m 46.76416,0.10031 -0.42318,-0.81834 0.10439,-0.10438 0.10438,-0.10438 0.44001,0.92272 0.44001,0.92272 h -0.12121 -0.12122 z m -73.14457,0.15688 v -0.13229 h 0.13229 0.13229 v 0.13229 0.13229 h -0.13229 -0.13229 z m -0.26458,-0.52917 v -0.13229 h 0.13229 0.13229 v 0.13229 0.13229 h -0.13229 -0.13229 z m -0.36419,-0.80398 -0.16498,-0.42992 0.008,-0.1768 0.008,-0.1768 0.28079,0.48287 0.28079,0.48286 -0.12386,0.12386 -0.12385,0.12386 -0.16498,-0.42993 z m 73.1246,-0.38664 v -0.35278 l 0.17639,0.17639 0.17639,0.17639 -0.17639,0.17639 -0.17639,0.17638 z m 27.8039,0.13229 0.0146,-0.26459 0.22739,-0.52916 0.22739,-0.52917 0.0145,0.39688 0.0146,0.39687 -0.2565,0.39688 -0.25648,0.39687 z m -73.01046,-0.66146 v -0.39688 l 0.22739,-0.52916 0.2274,-0.52917 v 0.39688 0.39687 l -0.2274,0.52917 -0.22739,0.52916 z m -28.32672,-0.41892 0.0209,-0.50712 0.13897,0.34726 0.13896,0.34727 -0.15985,0.15985 -0.15985,0.15985 0.0209,-0.50711 z m 73.2687,0.15434 v -0.35278 l 0.17639,0.17639 0.17638,0.17639 -0.17638,0.17639 -0.17639,0.17638 z m -0.2437,-0.94809 0.0209,-0.50712 0.13896,0.34726 0.13897,0.34727 -0.15985,0.15985 -0.15986,0.15985 0.0209,-0.50711 z m 28.83958,0 0.0209,-0.50712 0.13896,0.34726 0.13897,0.34727 -0.15985,0.15985 -0.15986,0.15985 0.0209,-0.50711 z m -102.12916,-0.26459 0.0209,-0.50711 0.13896,0.34726 0.13897,0.34727 -0.15985,0.15985 -0.15986,0.15985 0.0209,-0.50712 z m 29.13486,-1.03628 0.01,-0.79375 0.12197,0.46805 0.12197,0.46806 -0.13177,0.32569 -0.13178,0.3257 0.01,-0.79375 z M 299.5524,93.789793 V 92.32008 l 1.36499,-0.292737 1.365,-0.292741 1.14875,-0.508145 1.14875,-0.508148 1.41005,-1.333564 1.41004,-1.333563 0.69382,-1.41695 0.69381,-1.416949 0.27519,-1.696048 0.27519,-1.696045 -10e-6,-31.220832 -1e-5,-31.220832 -0.24839,-2.160063 -0.2484,-2.160064 -0.69092,-2.07327 -0.69092,-2.073269 -1.08458,-1.8520834 -1.08457,-1.8520833 -2.02026,-1.9843749 -2.02025,-1.9843749 -1.50248,-0.8875746 -1.50248,-0.8875744 -1.61207,-0.65114697 -1.61208,-0.65114669 -1.76898,-0.37491351 -1.76898,-0.37491377 -32.22622,-0.004594 -32.22622,-0.004594 0.0794,-1.52135406 0.0794,-1.5213541 h 32.67604 32.67604 l 2.24895,0.5956061 2.24896,0.5956059 2.38763,1.1500342 2.38763,1.15003415 1.58112,1.25489465 1.58112,1.2548946 1.14451,1.2327982 1.14451,1.2327984 1.28789,1.9291948 1.28788,1.9291947 0.78812,2.0436749 0.78813,2.043675 0.39593,1.847963 0.39593,1.847964 0.0619,-0.529167 0.0619,-0.529167 0.19332,1.719792 0.19331,1.719791 0.005,31.617707 0.005,31.617707 -0.20116,1.455208 -0.20116,1.455208 -0.0598,-0.529166 -0.0598,-0.529167 -0.33179,1.322917 -0.33179,1.322916 -0.44862,1.046425 -0.44862,1.046424 -1.0694,1.416407 -1.0694,1.416407 -1.57395,1.158677 -1.57395,1.158676 -1.454,0.54401 -1.45399,0.54401 -1.44975,0.170389 -1.44974,0.170389 v -1.46971 z m -68.4682,-19.123355 -0.58804,-0.411879 v -0.778746 -0.778748 l 0.52916,-0.529167 0.52917,-0.529166 h 5.23279 5.2328 l 0.58804,0.411877 0.58804,0.411879 v 0.896035 0.896036 l -0.58804,0.411879 -0.58804,0.411877 h -5.17392 -5.17393 z m -33.05773,-69.9693592 -0.5874,-0.2396019 -0.1627,-0.6482691 -0.16271,-0.6482688 0.29472,-0.5506863 0.29472,-0.550686 0.58768,-0.144907 0.58767,-0.1449067 4.23333,0.075637 4.23334,0.075637 v 1.4552083 1.4552082 l -4.36563,0.052619 -4.36562,0.052619 z m -0.51524,-11.5377897 -0.45338,-0.6919467 0.39101,-0.6971157 0.391,-0.6971159 4.81878,-0.072115 4.81877,-0.072114 v 1.4611768 1.4611769 h -4.7564 -4.7564 z"
         id="path20987" />
      <path
         style="fill:#f1424e;stroke-width:0.264583"
         d="m 287.96541,80.989842 -0.87136,-0.43248 -0.64999,-1.109123 -0.64999,-1.109125 v -2.118558 -2.118559 l 0.46302,-0.408228 0.46302,-0.408228 5.66463,-2.940071 5.66462,-2.940071 h 0.32801 0.328 l 0.17687,3.241145 0.17687,3.241146 -0.0841,3.704167 -0.0841,3.704166 -5.02709,0.06315 -5.02708,0.06315 z"
         id="path20985" />
      <path
         style="fill:#5c525f;fill-opacity:1;stroke-width:0.264583"
         d="m 197.23637,120.18074 -1.3775,-0.37108 -0.97048,-0.40549 -0.97049,-0.4055 -1.65944,-1.18415 -1.65944,-1.18415 -1.07919,-1.35541 -1.07919,-1.35541 -0.68371,-1.39745 -0.68372,-1.39746 -0.37809,-1.42056 -0.3781,-1.42056 -0.003,-1.28741 -0.003,-1.2874 1.10037,2.19845 1.10036,2.19846 1.76344,1.76344 1.76344,1.76344 1.96484,0.96721 1.96484,0.96722 1.98438,0.41825 1.98437,0.41825 1.98438,-0.16058 1.98437,-0.16057 1.21337,-0.36793 1.21338,-0.36794 1.69704,-0.85631 1.69705,-0.8563 1.87525,-1.88139 1.87525,-1.88139 1.00926,-2.05052 1.00925,-2.05052 h 0.12254 0.12254 l -0.18143,1.52135 -0.18144,1.52136 -0.34902,1.20648 -0.34902,1.20648 -0.85854,1.70075 -0.85854,1.70076 -1.75034,1.73003 -1.75035,1.73004 -1.5875,0.83056 -1.5875,0.83055 -1.62569,0.41916 -1.62569,0.41915 -2.21077,-0.0174 -2.21076,-0.0174 z m 73.272,0.0231 -1.39508,-0.33784 -1.77992,-0.89643 -1.77992,-0.89644 -1.71979,-1.71979 -1.7198,-1.71979 -0.83466,-1.5875 -0.83466,-1.5875 -0.42211,-1.43708 -0.42211,-1.43709 0.0124,-1.47333 0.0124,-1.47333 0.47595,1.21656 0.47596,1.21655 0.99548,1.49975 0.99547,1.49975 1.49276,1.33423 1.49275,1.33422 1.85208,0.91384 1.85209,0.91383 1.85208,0.38885 1.85208,0.38885 h 1.19063 1.19062 l 1.85209,-0.38885 1.85208,-0.38885 1.98437,-0.96991 1.98438,-0.96991 1.89023,-1.91019 1.89022,-1.91018 0.94963,-1.95198 0.94964,-1.95198 0.004,1.34104 0.004,1.34104 -0.42211,1.43709 -0.42211,1.43708 -0.83466,1.5875 -0.83466,1.5875 -1.73531,1.74444 -1.73531,1.74443 -1.71627,0.84492 -1.71627,0.84491 -1.44321,0.38408 -1.44321,0.38406 -2.24896,-0.0194 -2.24896,-0.0194 -1.39508,-0.33784 z"
         id="path20983" />
    </g>
    <g
       id="g27759"
       transform="matrix(0.44394725,0.05920633,-0.05920633,0.44394725,142.88412,105.65333)">
      <path
         style="fill:#ed7683;stroke-width:0.264583"
         d="m -265.95203,178.51299 c -0.61148,-0.30485 -0.63301,-0.4103 -0.55927,-2.73962 0.044,-1.38911 -0.0456,-2.65101 -0.20988,-2.95805 -0.3287,-0.61418 0.0991,-1.08289 0.56405,-0.61797 0.28317,0.28317 0.31336,4.17322 0.0408,5.25911 -0.13116,0.52258 -0.0527,0.61211 0.53651,0.61211 0.37958,0 0.69014,0.11204 0.69014,0.24897 0,0.44381 -0.41213,0.51964 -1.06237,0.19545 z m 7.94154,0.0165 c 0,-0.36411 0.34848,-0.45179 2.05052,-0.51593 2.05052,-0.0773 2.05052,-0.0773 2.13803,-1.4002 0.30556,-4.61928 -2.3481,-11.02734 -5.78475,-13.96898 -0.6078,-0.52025 -1.05811,-1.08684 -1.00069,-1.2591 0.0574,-0.17225 0.94708,0.58915 1.97702,1.692 3.36813,3.60657 5.11779,7.97734 5.11779,12.78466 0,2.47122 0,2.47122 -1.93146,2.47122 -1.14947,0 -2.06001,0.12854 -2.24896,0.3175 -0.24695,0.24694 -0.3175,0.22002 -0.3175,-0.12117 z m 76.33229,0.0682 c -0.10743,-0.17383 -10.2774,-0.26458 -29.64895,-0.26458 h -29.48543 v -4.20474 c 0,-4.20474 0,-4.20474 -7.94175,-17.39635 -4.36797,-7.25539 -8.08599,-13.3967 -8.26228,-13.64736 -0.23688,-0.33681 -0.24308,-0.53319 -0.0237,-0.75254 0.21935,-0.21935 2.45188,3.29565 8.55505,13.46949 8.25824,13.76629 8.25824,13.76629 8.16392,17.95045 l -0.0943,4.18417 29.56719,0.0673 c 26.03753,0.0593 29.56718,0.11454 29.56718,0.46302 0,0.45736 -0.16215,0.51094 -0.39687,0.13115 z M -243.99806,151.725 c -6.53581,-10.89648 -11.24743,-19.02137 -11.3156,-19.51302 -0.0736,-0.53099 4.11066,6.19995 11.31872,18.20759 6.28955,10.4775 11.57287,19.13787 11.74072,19.24528 0.16785,0.1074 9.94925,0.16693 21.73643,0.13229 l 21.43125,-0.063 1.18543,-2.24896 c 1.80158,-3.41789 5.13649,-6.67328 8.48028,-8.27807 2.96325,-1.42216 5.52269,-2.04068 8.44434,-2.04068 2.13058,0 2.13058,0 2.13058,4.04813 0,2.79576 0.0982,4.14634 0.3175,4.36562 0.24694,0.24694 0.21904,0.3175 -0.12558,0.3175 -0.39253,0 -0.45138,-0.47531 -0.51593,-4.16719 -0.0729,-4.16718 -0.0729,-4.16718 -1.92495,-4.14196 -3.56686,0.0486 -8.66203,2.07368 -11.71412,4.65583 -2.03363,1.7205 -3.5484,3.70511 -4.75741,6.23301 -0.91743,1.91823 -0.91743,1.91823 -23.07515,1.91823 h -22.15772 z m -25.31266,13.74305 c 0.34245,-0.34244 -1.88598,-4.02437 -3.87858,-6.40841 -1.54418,-1.84753 -1.42885,-1.95728 1.94604,-1.85178 1.96748,0.0615 2.94699,0.19501 3.03115,0.41313 0.20486,0.53095 -0.16061,0.575 -2.46201,0.29677 -1.20873,-0.14613 -2.25974,-0.20365 -2.33557,-0.12781 -0.0758,0.0758 0.43524,0.88269 1.13572,1.79302 1.52666,1.984 3.57917,5.51578 3.3866,5.82736 -0.0757,0.12253 -0.32909,0.22278 -0.56304,0.22278 -0.23395,0 -0.35109,-0.0743 -0.26031,-0.16506 z m 11.6971,-80.003689 c -0.10686,-0.172905 1.33167,-0.249754 4.15158,-0.221785 4.09883,0.04065 4.18912,0.05243 1.80155,0.234968 -3.75509,0.287092 -5.7703,0.282629 -5.95313,-0.01318 z"
         id="path27769" />
      <path
         style="fill:#e6586b;stroke-width:0.264583"
         d="m -265.50867,178.16121 c -0.62318,-0.10979 -0.72595,-0.23336 -0.60265,-0.72461 0.34188,-1.36218 0.2353,-5.01097 -0.15484,-5.30068 -0.21113,-0.15678 -0.53218,-0.88037 -0.71346,-1.60797 -0.18127,-0.72761 -0.66664,-2.12668 -1.07859,-3.10906 -0.42708,-1.01847 -0.64125,-1.85274 -0.4983,-1.94109 0.33988,-0.21005 -1.3498,-3.24662 -3.12772,-5.6209 -0.79891,-1.06689 -1.39295,-1.99942 -1.32008,-2.07229 0.0729,-0.0729 1.12351,-0.0127 2.33476,0.13375 1.2486,0.15095 2.32199,0.16688 2.47876,0.0368 0.62544,-0.51907 7.53447,2.73287 7.53447,3.54633 0,0.13446 0.4778,0.65346 1.06178,1.15333 2.47244,2.11631 4.71298,6.24856 5.43547,10.02468 0.42639,2.22856 0.50556,5.01687 0.14871,5.23742 -0.314,0.19406 -10.54913,0.41154 -11.49831,0.24432 z m 54.7263,-0.0909 -29.63333,-0.13401 0.0943,-4.18417 c 0.0943,-4.18416 0.0943,-4.18416 -8.15227,-17.93104 -4.53563,-7.56078 -8.35831,-13.67783 -8.49485,-13.59344 -0.35493,0.21936 -0.32837,-0.0324 0.5455,-5.16947 0.4332,-2.54662 0.79368,-4.74927 0.80105,-4.89479 0.007,-0.14552 0.18191,0.12311 0.38786,0.59697 0.20594,0.47385 5.33838,9.13565 11.40542,19.24843 l 11.03098,18.38689 h 22.15692 c 22.15693,0 22.15693,0 23.07436,-1.91823 1.20901,-2.5279 2.72378,-4.51251 4.75741,-6.23301 3.05209,-2.58215 8.14726,-4.60725 11.71412,-4.65583 1.85208,-0.0252 1.85208,-0.0252 2.04831,5.66332 0.10793,3.12869 0.14273,5.92666 0.0773,6.21771 -0.10532,0.46879 -0.33902,0.53024 -2.04831,0.53864 -2.13651,0.0105 -3.06629,0.37434 -4.42261,1.73066 -1.32645,1.32645 -1.70915,2.29022 -1.72545,4.34528 -0.008,1.01864 -0.13376,1.93956 -0.27928,2.04647 -0.14552,0.10691 -1.03849,0.16721 -1.98438,0.13401 -0.94588,-0.0332 -15.05479,-0.12068 -31.35312,-0.19439 z M -257.5629,93.496723 c -0.10065,-0.100654 -0.18195,-1.919335 -0.18065,-4.041514 l 0.002,-3.858507 4.23795,-0.08262 4.23796,-0.08262 -0.0731,4.051368 -0.0731,4.051369 -3.98418,0.07276 c -2.1913,0.04002 -4.06654,-0.0096 -4.16719,-0.110243 z"
         id="path27767" />
      <path
         style="fill:#45596f;stroke-width:0.264583"
         d="m -269.18914,186.34384 c 0.47295,-0.0587 1.24685,-0.0587 1.71979,0 0.47295,0.0587 0.086,0.10671 -0.85989,0.10671 -0.94589,0 -1.33284,-0.048 -0.8599,-0.10671 z m 97.36667,0 c 0.47294,-0.0587 1.24684,-0.0587 1.71979,0 0.47294,0.0587 0.086,0.10671 -0.8599,0.10671 -0.94588,0 -1.33284,-0.048 -0.85989,-0.10671 z m -100.93044,-0.85208 c -0.90504,-0.42815 -2.19175,-1.32468 -2.85934,-1.99227 -1.23304,-1.23304 -2.78509,-4.0708 -2.75325,-5.03404 0.01,-0.29104 0.16851,-0.0529 0.35308,0.52916 1.06901,3.37133 3.53865,5.84128 6.90505,6.90594 0.58209,0.18409 0.82021,0.34258 0.52917,0.3522 -0.29104,0.01 -1.26966,-0.33282 -2.17471,-0.76099 z m 7.20179,0.40791 c 3.23953,-1.02722 5.91555,-3.64224 6.86305,-6.70662 0.18296,-0.59173 0.16704,-0.59531 -2.64596,-0.59531 -2.83003,0 -2.83003,0 -3.83784,0.91049 -2.03798,1.84119 -4.27662,1.84133 -6.31433,2.7e-4 -1.97588,-1.78509 -2.02214,-4.63941 -0.10624,-6.55531 0.95204,-0.95204 2.85466,-1.66786 3.78585,-1.42435 0.75133,0.19648 0.69858,-0.39087 -0.27735,-3.08796 -0.63727,-1.7612 -0.93755,-2.27115 -1.38906,-2.35905 -0.57267,-0.11148 -0.57275,-0.11235 -0.0131,-0.14817 0.30961,-0.0198 0.6905,0.11769 0.84643,0.30558 0.43446,0.52349 1.9413,5.19503 1.76678,5.47741 -0.0847,0.13699 -0.50872,0.17811 -0.94236,0.0914 -1.07255,-0.21451 -2.98657,0.55421 -3.80669,1.52887 -1.55535,1.84853 -1.46471,4.2605 0.22355,5.94876 1.7962,1.79619 4.36409,1.77424 6.19128,-0.0529 0.89956,-0.89956 0.89956,-0.89956 3.91581,-0.89956 2.23672,0 3.01619,0.0855 3.01604,0.33073 -5.3e-4,0.82107 -1.67021,3.73486 -2.77096,4.8356 -1.23304,1.23305 -4.0708,2.7851 -5.03404,2.75326 -0.29104,-0.01 -0.0529,-0.16851 0.52916,-0.35308 z m 90.16488,-0.40791 c -2.09505,-0.99112 -3.86049,-2.75656 -4.85161,-4.85161 -1.07725,-2.27709 -1.0662,-2.30629 0.87475,-2.31104 0.90951,-0.002 1.77271,-0.0915 1.91823,-0.19844 0.14552,-0.10691 0.27119,-1.02783 0.27928,-2.04647 0.0163,-2.05506 0.399,-3.01883 1.72545,-4.34528 1.32645,-1.32644 2.29022,-1.70914 4.34527,-1.72545 1.01865,-0.008 1.93956,-0.13375 2.04647,-0.27927 0.10691,-0.14552 0.19621,-1.00873 0.19844,-1.91823 0.003,-1.14448 0.10588,-1.65358 0.33478,-1.65344 0.82107,5.3e-4 3.73486,1.67021 4.83561,2.77095 1.23304,1.23305 2.78509,4.07081 2.75325,5.03405 -0.01,0.29104 -0.16851,0.0529 -0.35308,-0.52917 -1.04462,-3.29443 -3.5838,-5.89589 -6.69474,-6.85896 -0.56036,-0.17347 -0.58653,-0.10416 -0.66146,1.75168 -0.078,1.93228 -0.078,1.93228 -1.9301,1.93785 -4.12694,0.0124 -6.65277,2.77026 -6.41644,7.00589 0.0664,1.19063 0.0664,1.19063 -1.86585,1.26865 -1.85573,0.0749 -1.92515,0.10114 -1.75199,0.66146 0.94297,3.05136 3.6252,5.66926 6.85928,6.69474 0.58208,0.18457 0.8202,0.34346 0.52916,0.35308 -0.29104,0.01 -1.26966,-0.33282 -2.1747,-0.76099 z m 7.20179,0.40791 c 3.37132,-1.06901 5.84128,-3.53865 6.90593,-6.90506 0.18409,-0.58208 0.34258,-0.8202 0.3522,-0.52916 0.0318,0.96324 -1.52021,3.801 -2.75325,5.03404 -1.23305,1.23305 -4.07081,2.7851 -5.03405,2.75326 -0.29104,-0.01 -0.0529,-0.16851 0.52917,-0.35308 z m -4.49792,-5.42229 c -3.17942,-1.47203 -3.93109,-5.1364 -1.5434,-7.52408 2.55701,-2.55702 6.71583,-1.38832 7.78744,2.18841 0.59882,1.99868 -0.63656,4.36018 -2.79351,5.33995 -1.34946,0.61297 -2.11938,0.61202 -3.45053,-0.004 z m 3.46038,-0.26471 c 1.27363,-0.57846 2.11168,-1.56163 2.53474,-2.97367 0.62502,-2.08613 -0.87522,-4.58549 -3.16406,-5.27124 -3.03645,-0.90975 -6.28579,2.27 -5.38659,5.27124 0.42305,1.41204 1.2611,2.39521 2.53473,2.97367 1.35913,0.61728 2.12205,0.61728 3.48118,0 z m -109.34131,-3.99618 c 0,-0.94589 0.048,-1.33284 0.10671,-0.8599 0.0587,0.47295 0.0587,1.24685 0,1.7198 -0.0587,0.47294 -0.10671,0.086 -0.10671,-0.8599 z m 117.73957,0 c 0,-0.94589 0.048,-1.33284 0.10672,-0.8599 0.0587,0.47295 0.0587,1.24685 0,1.7198 -0.0587,0.47294 -0.10672,0.086 -0.10672,-0.8599 z m -117.54177,-2.24896 c -0.0318,-0.96324 1.52021,-3.801 2.75325,-5.03405 1.23305,-1.23304 4.07081,-2.78509 5.03405,-2.75325 0.29104,0.01 0.0529,0.16811 -0.52917,0.3522 -3.3664,1.06465 -5.83604,3.53461 -6.90505,6.90593 -0.18457,0.58209 -0.34346,0.82021 -0.35308,0.52917 z m 15.32793,-14.23051 c -0.94589,-0.59571 -2.43417,-1.34806 -3.3073,-1.6719 -1.1949,-0.44318 -1.57705,-0.70889 -1.54527,-1.07444 0.0232,-0.2671 2.39436,-14.62432 5.2692,-31.90492 l 5.22696,-31.419266 h 3.92508 c 3.90315,0 3.9249,0.0033 3.89438,0.595312 -0.024,0.46513 -0.0576,0.49162 -0.15384,0.121135 -0.10637,-0.409599 -0.3801,-0.463649 -2.00987,-0.396875 -1.88672,0.0773 -1.88672,0.0773 -7.10829,31.430424 -2.87187,17.24422 -5.2917,31.73444 -5.37741,32.20048 -0.14816,0.8056 -0.0742,0.89928 1.50216,1.90151 1.17152,0.74486 1.71659,0.96203 1.85767,0.74015 0.13368,-0.21023 0.20101,-0.16098 0.20372,0.14901 0.006,0.67218 -0.44867,0.54395 -2.37719,-0.67062 z m 5.14236,-16.46115 c 0.0554,-0.43657 0.52177,-3.23453 1.03647,-6.21771 0.51469,-2.98318 0.98284,-5.84068 1.04031,-6.35 0.0801,-0.7097 0.11124,-0.61699 0.13336,0.39687 0.0283,1.29577 -1.47476,10.21058 -2.02968,12.03854 -0.25546,0.84154 -0.27193,0.85361 -0.18046,0.1323 z m -11.77975,-50.42593 c -0.50453,-0.504533 -0.54433,-0.799384 -0.46302,-3.430799 0.12541,-4.058963 -0.28586,-3.822439 6.64641,-3.822439 h 5.61337 l 0.0732,3.902604 0.0732,3.902604 h -5.69562 c -5.42127,0 -5.7222,-0.02659 -6.24758,-0.55197 z m 11.66447,-3.416779 c 0,-3.704167 0,-3.704167 -1.98438,-3.704167 -1.98437,0 -1.98437,0 -1.98437,1.078686 0,0.839454 -0.17153,1.250211 -0.7734,1.852083 -0.76942,0.769422 -0.78982,0.773398 -3.96875,0.773398 -3.19535,0 -3.19535,0 -3.19535,1.368229 0,2.341395 -0.0149,2.335937 6.39101,2.335937 h 5.51524 z m 8.79032,0.06615 0.0732,-3.902604 5.61715,-0.07139 c 7.0473,-0.08957 6.68597,-0.300758 6.68597,3.907851 0,4.189773 0.37614,3.968749 -6.75394,3.968749 h -5.69562 z m 11.62791,3.200139 c 0.41032,-0.371332 0.48385,-0.860758 0.48385,-3.220312 0,-3.424007 -0.19915,-3.750139 -2.28997,-3.750139 -1.4142,0 -1.4142,0 -1.4142,1.043579 0,0.720976 -0.1971,1.273066 -0.63759,1.785938 -0.62362,0.726085 -0.71207,0.745258 -4.0349,0.87465 -3.3973,0.132291 -3.3973,0.132291 -3.47553,1.918229 -0.0782,1.785937 -0.0782,1.785937 5.40312,1.785937 4.72917,0 5.54776,-0.06009 5.96522,-0.437882 z"
         id="path27763" />
      <path
         style="fill:#2e4457;stroke-width:0.264583"
         d="m -271.10737,185.9151 c -2.89523,-0.96025 -5.16527,-2.94473 -6.40304,-5.59757 -0.64783,-1.38846 -0.74071,-1.90265 -0.74071,-4.10104 0,-2.1994 0.0933,-2.71541 0.74647,-4.12871 1.33636,-2.89154 4.48161,-5.332 7.48654,-5.80894 1.08926,-0.17288 1.08926,-0.17288 1.91823,2.11809 0.99183,2.74104 1.04689,3.32909 0.29329,3.13202 -0.93119,-0.24351 -2.83381,0.47231 -3.78585,1.42435 -1.9159,1.9159 -1.86964,4.77021 0.10624,6.5553 2.03771,1.84096 4.27635,1.84082 6.31433,-2.6e-4 1.00781,-0.9106 1.00781,-0.9106 3.83784,-0.9106 2.81309,0 2.82893,0.004 2.64564,0.59531 -0.78582,2.53713 -3.02779,5.04174 -5.53981,6.18881 -1.88197,0.85937 -5.13547,1.11157 -6.87917,0.53324 z m 97.36667,0 c -3.28421,-1.08926 -5.91867,-3.66646 -6.85928,-6.71017 -0.17316,-0.56032 -0.10374,-0.58653 1.75199,-0.66146 1.93229,-0.078 1.93229,-0.078 1.86585,-1.26865 -0.23633,-4.23563 2.2895,-6.9935 6.41644,-7.00589 1.85208,-0.006 1.85208,-0.006 1.9301,-1.93785 0.0749,-1.85584 0.1011,-1.92515 0.66146,-1.75168 2.55903,0.79221 4.89234,2.85549 6.11099,5.40376 0.7418,1.55116 0.82245,1.96624 0.82245,4.23333 0,2.1994 -0.0933,2.71541 -0.74647,4.12871 -0.95101,2.05774 -2.99713,4.08876 -5.07437,5.03694 -1.88205,0.85908 -5.13583,1.11117 -6.87916,0.53296 z m 4.50886,-5.43344 c 2.15695,-0.97977 3.39233,-3.34127 2.79351,-5.33995 -1.07161,-3.57673 -5.23043,-4.74543 -7.78744,-2.18841 -2.38769,2.38768 -1.63602,6.05205 1.5434,7.52408 1.33115,0.6163 2.10107,0.61725 3.45053,0.004 z m -93.48996,-20.9632 c -1.57628,-1.00221 -1.65028,-1.09589 -1.50213,-1.90149 0.0857,-0.46604 2.50554,-14.95626 5.37741,-32.20048 5.22157,-31.353121 5.22157,-31.353121 7.12984,-31.430858 1.04955,-0.04276 1.90827,-0.01057 1.90827,0.07152 0,0.141592 -4.96755,30.322198 -6.99061,42.471838 -2.13852,12.84301 -4.04259,23.8214 -4.15022,23.92903 -0.063,0.063 -0.86067,-0.35978 -1.77256,-0.93956 z m -6.75706,-66.864987 c -0.28862,-0.318928 -0.43788,-0.950228 -0.43788,-1.852083 0,-1.368229 0,-1.368229 3.19535,-1.368229 3.17893,0 3.19933,-0.004 3.96875,-0.773398 0.60187,-0.601872 0.7734,-1.012629 0.7734,-1.852083 0,-1.078686 0,-1.078686 1.98437,-1.078686 1.98438,0 1.98438,0 1.98438,3.704167 v 3.704166 h -5.51524 c -5.00706,0 -5.55559,-0.04458 -5.95313,-0.483854 z m 20.51826,-1.302083 c 0.0782,-1.785938 0.0782,-1.785938 3.47553,-1.918229 3.32283,-0.129392 3.41128,-0.148565 4.0349,-0.87465 0.44049,-0.512872 0.63759,-1.064962 0.63759,-1.785938 0,-1.043579 0,-1.043579 1.4142,-1.043579 2.09082,0 2.28997,0.326132 2.28997,3.750139 0,3.869435 0.3724,3.658194 -6.44907,3.658194 -5.48136,0 -5.48136,0 -5.40312,-1.785937 z"
         id="path27761" />
    </g>
  </g>
</svg>
